<svg width="68" height="32" viewBox="0 0 68 32" fill="none" xmlns="http://www.w3.org/2000/svg">
<rect x="0.960938" width="67" height="32" rx="4" fill="#3182F7"/>
<path fill-rule="evenodd" clip-rule="evenodd" d="M14.2109 10.375C14.2109 10.0766 14.3295 9.79048 14.5404 9.5795C14.7514 9.36853 15.0376 9.25 15.3359 9.25H26.5859C26.8843 9.25 27.1705 9.36853 27.3814 9.5795C27.5924 9.79048 27.7109 10.0766 27.7109 10.375V11.9395C27.7109 12.3373 27.5528 12.7188 27.2714 13L23.2109 17.0605V22.6285C23.211 22.7691 23.175 22.9075 23.1065 23.0303C23.0381 23.1531 22.9393 23.2564 22.8197 23.3304C22.7001 23.4043 22.5635 23.4465 22.423 23.4528C22.2825 23.4591 22.1427 23.4294 22.0169 23.3665L19.2292 21.973C19.0735 21.8951 18.9425 21.7755 18.851 21.6274C18.7594 21.4793 18.7109 21.3086 18.7109 21.1345V17.0605L14.6504 13C14.3691 12.7188 14.211 12.3373 14.2109 11.9395V10.375Z" fill="white"/>
<path d="M43.5915 9.91022V16.2479H42.291V9.91022H43.5915ZM33.6184 14.8267C34.0873 14.8267 34.5852 14.8218 35.1073 14.8122V11.7376H33.952V10.7224H40.5991V11.7376H39.4292V14.6381C40.0238 14.5946 40.6039 14.5414 41.155 14.4738L41.213 15.4164C38.7717 15.7887 35.9195 15.8757 33.7683 15.8709L33.6184 14.8267ZM35.4651 17.8239V16.8087H43.5915V19.8398H36.78V21H44.0169V22.0442H35.4989V18.8923H42.3056V17.8239H35.4651ZM36.3546 14.788C36.954 14.7686 37.568 14.7493 38.1819 14.7155V11.7376H36.3546V14.788ZM55.5897 9.91022V22.1844H54.3038V15.4986H51.8625V14.4399H54.3038V9.91022H55.5897ZM45.9357 19.2887V10.9979H51.6595V12.0615H47.241V14.4399H51.1471V15.4744H47.241V18.2155C49.2907 18.2106 50.712 18.1478 52.3411 17.8674L52.4813 18.9261C50.6975 19.2113 49.1602 19.2838 46.8833 19.2887H45.9357Z" fill="white"/>
</svg>
