<svg width="33" height="32" viewBox="0 0 33 32" fill="none" xmlns="http://www.w3.org/2000/svg">
<path d="M22.117 24.5552C20.6125 25.649 18.8181 26.2683 16.9649 26.3383L16.594 26.3452C14.7337 26.3416 12.9191 25.7832 11.3808 24.7469L11.0764 24.5349C9.47595 23.3619 8.29043 21.7094 7.68932 19.8183L7.58361 19.4628C7.09216 17.674 7.14285 15.7757 7.73324 14.0112C8.36288 12.1297 9.57402 10.4975 11.1917 9.34896L11.4987 9.13848C13.0524 8.12579 14.8752 7.59557 16.7352 7.62017C18.7193 7.64653 20.6446 8.30309 22.2316 9.4942C23.4899 10.4387 24.4839 11.6817 25.1307 13.1019L25.9447 10.8167L25.9817 10.7281C26.1855 10.2997 26.6851 10.0861 27.1417 10.2488C27.6284 10.4226 27.8817 10.9586 27.7082 11.4455L26.1006 15.9562C25.9284 16.4384 25.4003 16.6929 24.9157 16.5274L20.3015 14.9518L20.2113 14.916C19.7803 14.7179 19.5611 14.2214 19.7176 13.7628C19.8847 13.2736 20.4167 13.0113 20.906 13.1782L23.5093 14.0673C22.9961 12.8524 22.1704 11.7894 21.1083 10.9921C19.8388 10.0392 18.2986 9.51367 16.7114 9.49248C15.2233 9.47271 13.7644 9.89712 12.5214 10.7073L12.2757 10.8742C10.9813 11.7931 10.0129 13.1002 9.50908 14.6056C9.03694 16.0167 8.99606 17.5345 9.38882 18.9651L9.4732 19.2516C9.95407 20.7643 10.9035 22.085 12.1837 23.0233L12.4275 23.1937C13.6582 24.0227 15.1094 24.469 16.5977 24.4718L16.8941 24.4673C18.377 24.4113 19.8129 23.916 21.0167 23.0406C21.0211 23.0373 21.0251 23.0333 21.0295 23.03C21.4474 22.7255 22.0334 22.8174 22.338 23.2352C22.6426 23.6531 22.5507 24.2391 22.1328 24.5437C22.1278 24.5473 22.1223 24.5503 22.1172 24.5538L22.117 24.5552Z" fill="black"/>
</svg>
