<svg width="19" height="18" viewBox="0 0 19 18" fill="none" xmlns="http://www.w3.org/2000/svg">
<path d="M14.1074 4.14645C14.3026 3.95118 14.6192 3.95118 14.8144 4.14645C15.0097 4.34171 15.0097 4.65822 14.8144 4.85348L10.6679 8.99996L14.8144 13.1464L14.8789 13.2246C15.007 13.4187 14.9853 13.6826 14.8144 13.8535C14.6436 14.0243 14.3796 14.0461 14.1855 13.9179L14.1074 13.8535L9.9609 9.70699L5.81442 13.8535C5.61915 14.0487 5.30265 14.0487 5.10738 13.8535C4.91212 13.6582 4.91212 13.3417 5.10738 13.1464L9.25387 8.99996L5.10738 4.85348C4.91212 4.65822 4.91212 4.34171 5.10738 4.14645C5.30265 3.95118 5.61915 3.95118 5.81442 4.14645L9.9609 8.29293L14.1074 4.14645Z" fill="#FDFDFD"/>
</svg>
