<svg width="24" height="25" viewBox="0 0 24 25" fill="none" xmlns="http://www.w3.org/2000/svg">
<path d="M17.4695 5.93629C17.7623 5.64343 18.2371 5.64351 18.53 5.93629C18.8229 6.22918 18.8229 6.70394 18.53 6.99683L13.0603 12.4666L18.53 17.9363L18.5818 17.9929C18.8221 18.2875 18.8046 18.7222 18.53 18.9968C18.2554 19.2714 17.8207 19.2889 17.5261 19.0486L17.4695 18.9968L11.9998 13.5271L6.53004 18.9968C6.23714 19.2897 5.76238 19.2897 5.46949 18.9968C5.17671 18.7039 5.17664 18.2291 5.46949 17.9363L10.9392 12.4666L5.46949 6.99683C5.17671 6.70393 5.17664 6.22914 5.46949 5.93629C5.76234 5.64343 6.23713 5.64351 6.53004 5.93629L11.9998 11.406L17.4695 5.93629Z" fill="#D2D7DC"/>
</svg>
