<svg width="16" height="17" viewBox="0 0 16 17" fill="none" xmlns="http://www.w3.org/2000/svg">
<path d="M3.55469 7.00293L7.98072 6.03442L12.4453 7.00293V11.9658C12.4453 13.0704 11.5499 13.9658 10.4453 13.9658H5.55469C4.45012 13.9658 3.55469 13.0704 3.55469 11.9658V7.00293Z" fill="white"/>
<path fill-rule="evenodd" clip-rule="evenodd" d="M12.4444 9.522V12.2998C12.4444 12.7418 12.2689 13.1657 11.9563 13.4783C11.6437 13.7909 11.2198 13.9664 10.7778 13.9664H8.55556V9.522H12.4444ZM7.44445 9.522V13.9664H5.22222C4.7802 13.9664 4.35627 13.7909 4.04371 13.4783C3.73115 13.1657 3.55556 12.7418 3.55556 12.2998V9.522H7.44445ZM6.33333 3.41089C6.64866 3.41052 6.96044 3.47742 7.24785 3.60714C7.53525 3.73686 7.79168 3.9264 8 4.16311C8.20832 3.9264 8.46475 3.73686 8.75216 3.60714C9.03957 3.47742 9.35134 3.41052 9.66667 3.41089H9.94444C10.1655 3.41089 10.3774 3.49869 10.5337 3.65497C10.69 3.81125 10.7778 4.02321 10.7778 4.24422V4.522C10.7778 4.927 10.6694 5.30645 10.4806 5.63311H11.8889C12.1836 5.63311 12.4662 5.75018 12.6746 5.95855C12.8829 6.16692 13 6.44954 13 6.74422V7.85533C13 8.05756 12.9375 8.41089 12.7292 8.41089H8.55556V6.74422C8.55556 6.59688 8.49702 6.45557 8.39284 6.35139C8.28865 6.2472 8.14734 6.18867 8 6.18867C7.85266 6.18867 7.71135 6.2472 7.60716 6.35139C7.50298 6.45557 7.44445 6.59688 7.44445 6.74422V8.41089H3.25272C3.03315 8.39027 2.99975 8.05041 3 7.85533V6.74422C3 6.44954 3.11706 6.16692 3.32544 5.95855C3.53381 5.75018 3.81643 5.63311 4.11111 5.63311H5.51945C5.32414 5.29543 5.2216 4.9121 5.22222 4.522V4.24422C5.22222 4.02321 5.31002 3.81125 5.4663 3.65497C5.62258 3.49869 5.83454 3.41089 6.05556 3.41089H6.33333ZM6.33333 4.522C6.26614 4.88167 6.4504 5.0993 6.65877 5.30768C6.86715 5.51605 7.11901 5.63311 7.44445 5.63311C7.44445 5.24631 7.32738 5.05581 7.11901 4.84744C6.91063 4.63906 6.65877 4.48284 6.33333 4.522ZM9.66667 4.522C9.34123 4.48854 9.08937 4.63906 8.88099 4.84744C8.67262 5.05581 8.55556 5.30768 8.55556 5.63311C8.85024 5.63311 9.13286 5.51605 9.34123 5.30768C9.5496 5.0993 9.72455 4.8019 9.66667 4.522Z" fill="url(#paint0_linear_5932_315)"/>
<defs>
<linearGradient id="paint0_linear_5932_315" x1="8" y1="3.41089" x2="8" y2="13.9664" gradientUnits="userSpaceOnUse">
<stop stop-color="#45F4F1"/>
<stop offset="1" stop-color="#27CAD1"/>
</linearGradient>
</defs>
</svg>
