<svg width="12" height="10" viewBox="0 0 12 10" fill="none" xmlns="http://www.w3.org/2000/svg">
<path d="M8.33398 0.522217C8.62867 0.522217 8.91174 0.639038 9.12012 0.847412C9.32829 1.05567 9.4452 1.33812 9.44531 1.63257V2.18823H9.62305C9.78946 2.18825 10.0403 2.17098 10.1904 2.24292C10.3405 2.31501 10.5053 2.42353 10.6094 2.55347L11.3125 3.63354C11.4703 3.83056 11.5566 4.07546 11.5566 4.32788V6.63257C11.5566 6.92715 11.4397 7.21035 11.2314 7.4187C11.0231 7.62707 10.74 7.7439 10.4453 7.7439H9.88965C9.88965 8.18592 9.71393 8.61005 9.40137 8.92261C9.08882 9.2351 8.66463 9.41089 8.22266 9.41089C7.78086 9.41077 7.35736 9.23496 7.04492 8.92261C6.73236 8.61005 6.55664 8.18592 6.55664 7.7439H4.88965C4.88965 8.18592 4.71393 8.61005 4.40137 8.92261C4.08882 9.2351 3.66463 9.41089 3.22266 9.41089C2.78086 9.41077 2.35736 9.23496 2.04492 8.92261C1.73236 8.61005 1.55664 8.18592 1.55664 7.7439C1.26196 7.7439 0.978882 7.62707 0.770508 7.4187C0.562202 7.21034 0.445312 6.9272 0.445312 6.63257L1.1123 1.63257C1.11242 1.33804 1.22923 1.05568 1.4375 0.847412C1.64577 0.639141 1.92813 0.522332 2.22266 0.522217H8.33398ZM7.55176 7.76245C7.55184 7.93899 7.62233 8.10824 7.74707 8.23315C7.87209 8.35818 8.04194 8.42847 8.21875 8.42847C8.39556 8.42847 8.56541 8.35818 8.69043 8.23315C8.81517 8.10824 8.88566 7.93899 8.88574 7.76245H7.55176ZM2.54395 7.75464C2.54403 7.93118 2.61451 8.10043 2.73926 8.22534C2.86428 8.35037 3.03413 8.42065 3.21094 8.42065C3.38775 8.42065 3.55759 8.35037 3.68262 8.22534C3.80736 8.10043 3.87784 7.93118 3.87793 7.75464H2.54395ZM9.60449 3.29956C9.51147 3.29974 9.43102 3.36419 9.41016 3.45483L8.99512 5.2771C8.96664 5.40215 9.06127 5.52197 9.18945 5.52222H10.2451C10.3555 5.52222 10.4452 5.43242 10.4453 5.32202V4.24878C10.4452 4.21388 10.4364 4.17942 10.4189 4.14917L9.98633 3.40015C9.95066 3.33828 9.88487 3.29965 9.81348 3.29956H9.60449Z" fill="url(#paint0_linear_5932_305)"/>
<defs>
<linearGradient id="paint0_linear_5932_305" x1="6.00087" y1="0.522217" x2="6.00087" y2="9.4111" gradientUnits="userSpaceOnUse">
<stop stop-color="#4AF998"/>
<stop offset="0.815924" stop-color="#27D871"/>
<stop offset="1" stop-color="#1FD168"/>
</linearGradient>
</defs>
</svg>
