<svg width="21" height="20" viewBox="0 0 21 20" fill="none" xmlns="http://www.w3.org/2000/svg">
<path d="M5.16992 7.54364L10.7025 6.33301L16.2832 7.54364V13.7473C16.2832 15.128 15.1639 16.2473 13.7832 16.2473H7.66992C6.28921 16.2473 5.16992 15.128 5.16992 13.7473V7.54364Z" fill="white"/>
<path fill-rule="evenodd" clip-rule="evenodd" d="M16.2821 10.6921V14.1643C16.2821 14.7169 16.0626 15.2468 15.6719 15.6375C15.2812 16.0282 14.7513 16.2477 14.1988 16.2477H11.421V10.6921H16.2821ZM10.0321 10.6921V16.2477H7.25434C6.70181 16.2477 6.1719 16.0282 5.7812 15.6375C5.3905 15.2468 5.17101 14.7169 5.17101 14.1643V10.6921H10.0321ZM8.64323 3.05322C9.03739 3.05276 9.42711 3.13639 9.78637 3.29854C10.1456 3.46068 10.4662 3.69761 10.7266 3.9935C10.987 3.69761 11.3075 3.46068 11.6668 3.29854C12.026 3.13639 12.4157 3.05276 12.8099 3.05322H13.1571C13.4334 3.05322 13.6983 3.16297 13.8937 3.35832C14.089 3.55367 14.1988 3.81862 14.1988 4.09489V4.44211C14.1988 4.94836 14.0634 5.42267 13.8273 5.831H15.5877C15.956 5.831 16.3093 5.97733 16.5698 6.2378C16.8302 6.49827 16.9766 6.85154 16.9766 7.21989V8.60878C16.9766 8.86156 16.8984 9.30322 16.638 9.30322H11.421V7.21989C11.421 7.03571 11.3478 6.85908 11.2176 6.72884C11.0874 6.59861 10.9107 6.52545 10.7266 6.52545C10.5424 6.52545 10.3658 6.59861 10.2355 6.72884C10.1053 6.85908 10.0321 7.03571 10.0321 7.21989V9.30322H4.79246C4.51799 9.27745 4.47625 8.85263 4.47656 8.60878V7.21989C4.47656 6.85154 4.62289 6.49827 4.88336 6.2378C5.14383 5.97733 5.4971 5.831 5.86545 5.831H7.62587C7.38174 5.40889 7.25356 4.92974 7.25434 4.44211V4.09489C7.25434 3.81862 7.36409 3.55367 7.55944 3.35832C7.75479 3.16297 8.01974 3.05322 8.29601 3.05322H8.64323ZM8.64323 4.44211C8.55923 4.8917 8.78956 5.16374 9.05003 5.42421C9.31049 5.68467 9.62532 5.831 10.0321 5.831C10.0321 5.3475 9.88579 5.10938 9.62532 4.84891C9.36486 4.58844 9.05003 4.39316 8.64323 4.44211ZM12.8099 4.44211C12.4031 4.40028 12.0883 4.58844 11.8278 4.84891C11.5673 5.10938 11.421 5.42421 11.421 5.831C11.7894 5.831 12.1426 5.68467 12.4031 5.42421C12.6636 5.16374 12.8822 4.79199 12.8099 4.44211Z" fill="url(#paint0_linear_5824_12334)"/>
<defs>
<linearGradient id="paint0_linear_5824_12334" x1="10.7266" y1="3.05322" x2="10.7266" y2="16.2477" gradientUnits="userSpaceOnUse">
<stop stop-color="#45F4F1"/>
<stop offset="1" stop-color="#27CAD1"/>
</linearGradient>
</defs>
</svg>
