<svg width="45" height="45" viewBox="0 0 45 45" fill="none" xmlns="http://www.w3.org/2000/svg">
<path d="M19.6538 18.9416H18.2314C17.6655 18.9416 17.1228 19.1665 16.7226 19.5669C16.3225 19.9673 16.0977 20.5104 16.0977 21.0766V29.6169C16.0977 30.1831 16.3225 30.7262 16.7226 31.1266C17.1228 31.527 17.6655 31.752 18.2314 31.752H26.7662C27.3321 31.752 27.8748 31.527 28.275 31.1266C28.6751 30.7262 28.8999 30.1831 28.8999 29.6169V21.0766C28.8999 20.5104 28.6751 19.9673 28.275 19.5669C27.8748 19.1665 27.3321 18.9416 26.7662 18.9416H25.3438M25.3438 16.0948L22.4988 13.248M22.4988 13.248L19.6538 16.0948M22.4988 13.248V25.3468" stroke="#191919" stroke-width="1.5" stroke-linecap="round" stroke-linejoin="round"/>
</svg>
