<svg width="32" height="32" viewBox="0 0 32 32" fill="none" xmlns="http://www.w3.org/2000/svg">
<path d="M17.0665 9.59985C15.3692 9.59985 13.7413 10.2741 12.5411 11.4744C11.3408 12.6746 10.6665 14.3025 10.6665 15.9999H8.5332L11.2994 18.7661L11.3492 18.8656L14.2221 15.9999H12.0888C12.0888 14.6797 12.6132 13.4135 13.5467 12.48C14.4802 11.5465 15.7463 11.0221 17.0665 11.0221C18.3867 11.0221 19.6528 11.5465 20.5864 12.48C21.5199 13.4135 22.0443 14.6797 22.0443 15.9999C22.0443 17.32 21.5199 18.5862 20.5864 19.5197C19.6528 20.4532 18.3867 20.9776 17.0665 20.9776C15.6941 20.9776 14.4496 20.4159 13.5536 19.5127L12.5439 20.5225C13.703 21.6887 15.2888 22.3999 17.0665 22.3999C18.7639 22.3999 20.3918 21.7256 21.592 20.5253C22.7923 19.3251 23.4665 17.6972 23.4665 15.9999C23.4665 14.3025 22.7923 12.6746 21.592 11.4744C20.3918 10.2741 18.7639 9.59985 17.0665 9.59985Z" fill="#191919"/>
</svg>
