<svg width="24" height="24" viewBox="0 0 24 24" fill="none" xmlns="http://www.w3.org/2000/svg">
<path fill-rule="evenodd" clip-rule="evenodd" d="M7.33348 5.98414C6.93952 5.59708 6.30077 5.59708 5.9068 5.98414C5.51284 6.37119 5.51284 6.99872 5.9068 7.38577L10.6689 12.0643L6.03831 16.6136C5.64434 17.0007 5.64434 17.6282 6.03831 18.0152C6.43228 18.4023 7.07102 18.4023 7.46499 18.0152L12.0956 13.4659L16.5331 17.8255C16.9271 18.2126 17.5658 18.2126 17.9598 17.8255C18.3538 17.4385 18.3538 16.811 17.9598 16.4239L13.5223 12.0643L18.0913 7.57547C18.4853 7.18842 18.4853 6.56088 18.0913 6.17383C17.6973 5.78678 17.0586 5.78678 16.6646 6.17383L12.0956 10.6627L7.33348 5.98414Z" fill="black"/>
</svg>
