<?xml version="1.0" encoding="UTF-8"?>
<svg id="_레이어_1" data-name="레이어 1" xmlns="http://www.w3.org/2000/svg" xmlns:xlink="http://www.w3.org/1999/xlink" viewBox="0 0 280 156">
  <defs>
    <style>
      .cls-1 {
        fill: none;
        stroke: url(#_무제_그라디언트_2);
        stroke-width: 2px;
      }

      .cls-2 {
        fill: #d0d8ec;
      }

      .cls-2, .cls-3, .cls-4, .cls-5, .cls-6 {
        stroke-width: 0px;
      }

      .cls-3 {
        fill: #bec5dd;
      }

      .cls-4 {
        fill: #3182f7;
      }

      .cls-5 {
        fill: #fff;
      }

      .cls-6 {
        fill: #f5f8ff;
      }
    </style>
    <linearGradient id="_무제_그라디언트_2" data-name="무제 그라디언트 2" x1="254.13" y1="154.97" x2="3.87" y2="2.97" gradientTransform="translate(0 156.97) scale(1 -1)" gradientUnits="userSpaceOnUse">
      <stop offset="0" stop-color="#fff"/>
      <stop offset="1" stop-color="#333"/>
    </linearGradient>
  </defs>
  <g>
    <rect class="cls-6" x="2" y="2" width="254" height="152" rx="8" ry="8"/>
    <rect class="cls-1" x="1" y="1" width="256" height="154" rx="9" ry="9"/>
  </g>
  <rect class="cls-2" x="2" y="20" width="254" height="34"/>
  <rect class="cls-3" x="18" y="78" width="43" height="30" rx="4" ry="4"/>
  <rect class="cls-4" x="166" y="70" width="114" height="61" rx="8" ry="8"/>
  <path class="cls-5" d="M188.89,110.27c-4.35,0-7.46-2.41-7.55-5.85h4.16c.08,1.48,1.5,2.46,3.42,2.46s3.39-1.12,3.36-2.71c.03-1.61-1.42-2.76-3.75-2.76h-1.83v-3.04h1.83c1.94,0,3.31-1.07,3.31-2.62s-1.15-2.54-2.9-2.54-3.2.98-3.25,2.49h-3.94c.05-3.42,3.14-5.77,7.19-5.77s6.89,2.43,6.86,5.58c.03,2.21-1.53,3.8-3.75,4.18v.16c2.9.36,4.51,2.13,4.48,4.59.03,3.39-3.2,5.82-7.66,5.82ZM218.89,87.66v18.29h-3.47v-8.15h-6.18v-2.73h6.18v-1.91h-6.18v-2.73h6.18v-2.76h3.47ZM219.49,109.29v2.79h-17.14v-7.77h3.5v4.98h13.64ZM202.76,89.22v10.64c3.05-.03,5.89-.23,9-.79l.36,2.82c-3.72.71-7.08.85-10.8.85h-2v-13.51h3.44ZM246.55,101.77v1.56h-8.84v4.25h-1.9v-4.25h-9.13v-1.56h19.87ZM244.33,109.9v1.61h-15.11v-5.93h1.9v4.32h13.21ZM231.24,90.98v2.78h10.74v-2.78h1.9v8.67h-14.55v-8.67h1.9ZM231.24,98.09h10.74v-2.86h-10.74v2.86ZM264.65,90.3v4.83h3.3v1.64h-3.3v4.83h-1.9v-11.3h1.9ZM250.66,91.3v7.62c3.09-.01,6.27-.21,9.79-.93l.24,1.61c-3.69.71-6.96.93-10.23.93h-1.73v-9.23h1.93ZM252.78,102.73v2.88h9.96v-2.88h1.9v8.96h-13.74v-8.96h1.88ZM252.78,110.12h9.96v-2.93h-9.96v2.93Z"/>
  <path class="cls-4" d="M195.75,60.05l4.88,11.31c.48,1.12-.14,2.4-1.31,2.72l-11.77,3.21c-1.65.45-3.06-1.24-2.33-2.79l6.89-14.52c.74-1.55,2.96-1.51,3.64.07Z"/>
</svg>