<svg width="298" height="222" viewBox="0 0 298 222" fill="none" xmlns="http://www.w3.org/2000/svg">
<rect x="0.988281" y="0.157471" width="204.112" height="24.538" rx="12.269" fill="#838794"/>
<path d="M185.412 9.08032H20.5919C19.984 9.08032 19.5339 9.63164 19.687 10.22C29.6456 48.4904 49.6436 122.401 52.2939 133.444C54.9708 144.597 64.9347 147.014 69.5821 146.828L218.977 145.721C219.578 145.717 220.017 145.151 219.871 144.568L186.313 9.78494C186.21 9.37092 185.838 9.08032 185.412 9.08032Z" fill="#D8DFF0" stroke="#3182F7" stroke-width="0.929084" stroke-linecap="round"/>
<path d="M76.8339 121.228C69.738 142.933 64.6924 146.154 62.7016 144.956C62.4783 144.822 62.1794 144.805 61.9951 144.99C61.7086 145.276 61.9115 145.766 62.3168 145.766H124.156C124.763 145.766 125.206 145.195 125.056 144.607L118.66 119.555C116.615 109.703 110.295 89.8862 101.372 89.44C90.2183 88.8823 86.3145 92.2284 76.8339 121.228Z" fill="url(#paint0_linear_5475_10736)"/>
<path d="M258.079 89.3865H95.793C104.716 89.3865 109.177 97.5658 110.293 101.655L133.158 190.327H297.674C290.796 166.718 276.482 116.601 274.251 105.002C272.021 93.4018 262.54 89.7583 258.079 89.3865Z" fill="url(#paint1_linear_5475_10736)"/>
<circle cx="182.956" cy="184.349" r="26.6324" transform="rotate(-30.4083 182.956 184.349)" fill="#D5D9EA" stroke="url(#paint2_linear_5475_10736)" stroke-width="1.75669"/>
<g clip-path="url(#clip0_5475_10736)">
<path d="M194.163 175.114C194.459 174.941 194.562 174.562 194.392 174.272L193.361 172.516C193.191 172.226 192.81 172.131 192.515 172.304L190.364 173.567L189.121 169.539C189.003 169.165 188.563 168.999 188.218 169.201L186.152 170.414C185.897 170.564 185.78 170.868 185.873 171.138L187.438 175.284L182.514 178.174L179.416 174.916C179.216 174.709 178.903 174.668 178.652 174.816L176.68 175.973C176.429 176.12 176.312 176.413 176.396 176.688L177.715 180.99L172.845 183.848L169.853 180.546C169.659 180.329 169.332 180.285 169.077 180.435L167.191 181.542C166.846 181.744 166.773 182.206 167.043 182.491L169.933 185.558L167.782 186.82C167.486 186.993 167.384 187.372 167.554 187.662L168.584 189.418C168.754 189.708 169.135 189.803 169.431 189.629L172.223 187.991L173.37 189.207L170.256 191.034C169.96 191.208 169.857 191.587 170.027 191.877L171.058 193.633C171.228 193.922 171.609 194.018 171.905 193.844L175.664 191.638L182.201 198.579C182.397 198.789 182.717 198.831 182.968 198.684L185.512 197.19C185.763 197.043 185.878 196.745 185.797 196.474L182.985 187.341L185.454 185.892L192.061 192.798C192.258 193.001 192.574 193.046 192.825 192.899L195.37 191.405C195.62 191.258 195.735 190.96 195.654 190.689L192.833 181.561L196.637 179.329C196.933 179.155 197.036 178.776 196.865 178.486L195.835 176.73C195.665 176.441 195.284 176.345 194.988 176.519L191.847 178.362L191.354 176.763L194.163 175.114ZM180.993 191.697C181.38 192.993 181.905 193.948 181.883 193.961L181.833 193.99C181.833 193.99 181.19 193.069 180.312 192.097L178.428 190.015L180.167 188.995L180.993 191.697ZM179.185 185.794L176.192 187.55L175.077 186.316L178.697 184.191L179.185 185.794ZM182.004 184.14L181.872 183.709C181.751 183.308 181.616 182.915 181.484 182.556L182.012 182.246C182.261 182.536 182.539 182.845 182.83 183.147L183.142 183.472L182.004 184.14ZM190.909 185.878C191.33 187.118 191.82 188.129 191.82 188.129L191.771 188.158C191.744 188.173 191.17 187.247 190.228 186.278L188.281 184.233L190.033 183.205L190.909 185.878ZM188.998 180.035L185.978 181.807L184.826 180.594L188.482 178.448L188.998 180.035Z" fill="#ACB2C6"/>
</g>
<circle cx="244.978" cy="83.2609" r="23.7456" transform="rotate(15.8376 244.978 83.2609)" fill="#D5D9EA" stroke="url(#paint3_linear_5475_10736)" stroke-width="1.56638"/>
<path d="M258.238 84.139C258.554 84.2225 258.883 84.0549 258.971 83.7668L259.502 82.0202C259.59 81.7321 259.403 81.428 259.088 81.3446L256.795 80.7378L258.754 77.4536C258.935 77.1477 258.758 76.7612 258.39 76.6639L256.188 76.0811C255.916 76.0091 255.629 76.1218 255.503 76.348L253.676 79.9123L248.427 78.523L248.628 74.5189C248.639 74.2623 248.46 74.0357 248.192 73.965L246.091 73.4087C245.823 73.3379 245.544 73.4432 245.409 73.6669L243.311 77.1691L238.119 75.795L238.421 71.8318C238.443 71.5734 238.257 71.3355 237.985 71.2635L235.974 70.7313C235.606 70.6339 235.24 70.8719 235.222 71.2209L235.015 74.9733L232.722 74.3665C232.407 74.2831 232.077 74.4506 231.989 74.7388L231.458 76.4853C231.371 76.7735 231.557 77.0776 231.872 77.161L234.848 77.9486L234.767 79.4368L231.447 78.5582C231.132 78.4748 230.803 78.6423 230.715 78.9305L230.184 80.677C230.096 80.9652 230.282 81.2693 230.598 81.3527L234.605 82.4133L234.134 90.9033C234.119 91.1586 234.301 91.3908 234.568 91.4616L237.281 92.1797C237.549 92.2504 237.83 92.1408 237.964 91.9215L242.41 84.4789L245.042 85.1754L244.641 93.6888C244.632 93.941 244.809 94.1719 245.077 94.2427L247.79 94.9608C248.057 95.0315 248.338 94.9219 248.472 94.7026L252.909 87.2575L256.964 88.3307C257.279 88.4142 257.609 88.2466 257.696 87.9585L258.227 86.2119C258.315 85.9237 258.129 85.6197 257.814 85.5363L254.465 84.6501L255.244 83.3464L258.238 84.139ZM238.087 85.8823C237.448 86.9304 237.135 87.8573 237.111 87.8509L237.059 87.837C237.059 87.837 237.27 86.8549 237.361 85.6902L237.552 83.1933L239.406 83.6838L238.087 85.8823ZM240.967 81.0777L237.776 80.2332L237.891 78.7538L241.75 79.7752L240.967 81.0777ZM243.971 81.8728L244.181 81.5226C244.378 81.1973 244.561 80.8682 244.721 80.5615L245.285 80.7107C245.248 81.0502 245.219 81.4198 245.203 81.7931L245.185 82.1939L243.971 81.8728ZM248.657 88.6798C248.079 89.7157 247.706 90.6548 247.706 90.6548L247.653 90.6409C247.624 90.6333 247.885 89.6926 247.931 88.4877L248.056 85.9731L249.923 86.4674L248.657 88.6798ZM251.427 83.8461L248.208 82.9941L248.284 81.5046L252.182 82.5361L251.427 83.8461Z" fill="#ACB2C6"/>
<defs>
<linearGradient id="paint0_linear_5475_10736" x1="93.2855" y1="89.3865" x2="93.2855" y2="145.766" gradientUnits="userSpaceOnUse">
<stop stop-color="#BCC1D3"/>
<stop offset="1" stop-color="#9EA5BD"/>
</linearGradient>
<linearGradient id="paint1_linear_5475_10736" x1="95.793" y1="89.3865" x2="297.674" y2="189.769" gradientUnits="userSpaceOnUse">
<stop stop-color="white"/>
<stop offset="1" stop-color="#DAE0F1"/>
</linearGradient>
<linearGradient id="paint2_linear_5475_10736" x1="198.883" y1="161.182" x2="167.511" y2="207.033" gradientUnits="userSpaceOnUse">
<stop stop-color="white"/>
<stop offset="1" stop-color="#ACB2C5"/>
</linearGradient>
<linearGradient id="paint3_linear_5475_10736" x1="259.179" y1="62.605" x2="231.207" y2="103.486" gradientUnits="userSpaceOnUse">
<stop stop-color="white"/>
<stop offset="1" stop-color="#ACB2C5"/>
</linearGradient>
<clipPath id="clip0_5475_10736">
<rect width="29.924" height="26.0628" fill="white" transform="translate(163.457 180.683) rotate(-30.4083)"/>
</clipPath>
</defs>
</svg>
