<svg width="289" height="247" viewBox="0 0 289 247" fill="none" xmlns="http://www.w3.org/2000/svg">
<rect width="103.628" height="103.628" rx="51.4627" fill="#3182F7"/>
<path d="M121.657 19.5954V22.8038H118.955V24.3236C120.276 24.3115 121.271 24.2512 122.453 24.0341L122.573 24.9508C121.234 25.2041 120.125 25.2402 118.545 25.2523H117.833V21.9474H120.547V20.5H117.809V19.5954H121.657ZM126.566 18.7511V26.8686H125.48V18.7511H126.566ZM124.407 18.9441V26.5911H123.309V22.5988H122.079V21.6459H123.309V18.9441H124.407ZM126.879 28.3883V29.3171H119.401V26.0484H120.535V28.3883H126.879ZM133.204 19.2456V20.1623H129.333V21.1634H132.999V22.0439H129.333V23.1174C131.371 23.1114 132.523 23.0692 133.916 22.8521L134.025 23.7567C132.529 23.9979 131.287 24.0462 129.031 24.0462H128.187V19.2456H133.204ZM136.208 18.7391V21.0187H137.776V21.9595H136.208V24.3598H135.062V18.7391H136.208ZM136.208 24.8543V27.5078H130.37V28.5451H136.582V29.4377H129.248V26.6635H135.074V25.7589H129.224V24.8543H136.208ZM147.973 27.2907V28.2556H138.082V27.2907H140.784V25.385H139.288V21.9474H145.633V20.4397H139.264V19.4989H146.766V22.8762H140.422V24.4442H147.02V25.385H145.379V27.2907H147.973ZM141.894 27.2907H144.258V25.385H141.894V27.2907ZM159.646 18.7511V21.0911H161.226V22.0439H159.646V24.3839H158.5V18.7511H159.646ZM152.795 19.2336V22.9727C154.26 22.9606 155.792 22.8581 157.451 22.5143L157.595 23.4672C155.774 23.8049 154.122 23.9255 152.529 23.9255H151.649V19.2336H152.795ZM153.832 24.9266V26.2534H158.5V24.9266H159.646V29.4136H152.71V24.9266H153.832ZM153.832 28.4848H158.5V27.1822H153.832V28.4848ZM171.399 25.0955V26.0001H166.984V29.5462H165.862V26.0001H161.508V25.0955H171.399ZM163.872 19.1733V20.5845H169.01V19.1733H170.156V23.8652H162.738V19.1733H163.872ZM163.872 22.9485H169.01V21.5012H163.872V22.9485Z" fill="#505050"/>
<path d="M168.715 42.0356C168.999 42.0356 169.229 41.8052 169.229 41.521C169.229 41.2368 168.999 41.0064 168.715 41.0064L168.715 42.0356ZM119.676 41.1571C119.475 41.3581 119.475 41.6839 119.676 41.8849L122.951 45.16C123.152 45.3609 123.478 45.3609 123.679 45.16C123.88 44.959 123.88 44.6331 123.679 44.4322L120.768 41.521L123.679 38.6098C123.88 38.4088 123.88 38.083 123.679 37.882C123.478 37.6811 123.152 37.6811 122.951 37.882L119.676 41.1571ZM168.715 41.0064L167.701 41.0064L167.701 42.0356L168.715 42.0356L168.715 41.0064ZM165.673 41.0064L163.645 41.0064L163.645 42.0356L165.673 42.0356L165.673 41.0064ZM161.616 41.0064L159.588 41.0064L159.588 42.0356L161.616 42.0356L161.616 41.0064ZM157.56 41.0064L155.532 41.0064L155.532 42.0356L157.56 42.0356L157.56 41.0064ZM153.504 41.0064L151.476 41.0064L151.476 42.0356L153.504 42.0356L153.504 41.0064ZM149.448 41.0064L147.42 41.0064L147.42 42.0356L149.448 42.0356L149.448 41.0064ZM145.392 41.0064L143.363 41.0064L143.363 42.0356L145.392 42.0356L145.392 41.0064ZM141.335 41.0064L139.307 41.0064L139.307 42.0356L141.335 42.0356L141.335 41.0064ZM137.279 41.0064L135.251 41.0064L135.251 42.0356L137.279 42.0356L137.279 41.0064ZM133.223 41.0064L131.195 41.0064L131.195 42.0356L133.223 42.0356L133.223 41.0064ZM129.167 41.0064L127.138 41.0064L127.138 42.0356L129.167 42.0356L129.167 41.0064ZM125.11 41.0064L123.082 41.0064L123.082 42.0356L125.11 42.0356L125.11 41.0064ZM121.054 41.0064L120.04 41.0064L120.04 42.0356L121.054 42.0356L121.054 41.0064Z" fill="#8C8C8C"/>
<path d="M169.079 62.4699C169.28 62.2689 169.28 61.943 169.079 61.7421L165.804 58.467C165.603 58.266 165.277 58.266 165.076 58.467C164.875 58.668 164.875 58.9938 165.076 59.1948L167.987 62.106L165.076 65.0171C164.875 65.2181 164.875 65.5439 165.076 65.7449C165.277 65.9459 165.603 65.9459 165.804 65.7449L169.079 62.4699ZM120.04 61.5913C119.756 61.5913 119.525 61.8217 119.525 62.106C119.525 62.3902 119.756 62.6206 120.04 62.6206L120.04 61.5913ZM168.715 61.5913L167.701 61.5913L167.701 62.6206L168.715 62.6206L168.715 61.5913ZM165.673 61.5913L163.645 61.5913L163.645 62.6206L165.673 62.6206L165.673 61.5913ZM161.616 61.5913L159.588 61.5913L159.588 62.6206L161.616 62.6206L161.616 61.5913ZM157.56 61.5913L155.532 61.5913L155.532 62.6206L157.56 62.6206L157.56 61.5913ZM153.504 61.5913L151.476 61.5913L151.476 62.6206L153.504 62.6206L153.504 61.5913ZM149.448 61.5913L147.42 61.5913L147.42 62.6206L149.448 62.6206L149.448 61.5913ZM145.392 61.5913L143.363 61.5913L143.363 62.6206L145.392 62.6206L145.392 61.5913ZM141.335 61.5913L139.307 61.5913L139.307 62.6206L141.335 62.6206L141.335 61.5913ZM137.279 61.5913L135.251 61.5913L135.251 62.6206L137.279 62.6206L137.279 61.5913ZM133.223 61.5913L131.195 61.5913L131.195 62.6206L133.223 62.6206L133.223 61.5913ZM129.167 61.5913L127.138 61.5913L127.138 62.6206L129.167 62.6206L129.167 61.5913ZM125.11 61.5913L123.082 61.5913L123.082 62.6206L125.11 62.6206L125.11 61.5913ZM121.054 61.5913L120.04 61.5913L120.04 62.6206L121.054 62.6206L121.054 61.5913Z" fill="#8C8C8C"/>
<path d="M143.54 74.3245V85.1317H142.454V74.3245H143.54ZM141.333 74.6019V84.601H140.247V80.9222H138.402V79.9814H140.247V78.2204H138.583C138.058 80.0357 136.906 81.6097 134.868 82.8279L134.192 82.0077C136.484 80.6448 137.588 78.8295 137.787 76.6041H134.723V75.6633H138.92C138.92 76.2182 138.878 76.7549 138.788 77.2796H140.247V74.6019H141.333ZM154.641 75.9046V76.8454H153.11V78.2204H154.641V79.1853H153.11V80.7292H151.964V74.3245H153.11V75.9046H154.641ZM153.11 81.2117V85.1317H151.964V82.1404H145.969V81.2117H153.11ZM147.658 74.9517C149.31 74.9517 150.528 76.0131 150.54 77.5329C150.528 79.0526 149.31 80.1141 147.658 80.1141C146.005 80.1141 144.775 79.0526 144.787 77.5329C144.775 76.0131 146.005 74.9517 147.658 74.9517ZM147.658 75.9287C146.645 75.9287 145.897 76.568 145.909 77.5329C145.897 78.5099 146.645 79.1491 147.658 79.1371C148.671 79.1491 149.419 78.5099 149.419 77.5329C149.419 76.568 148.671 75.9287 147.658 75.9287Z" fill="#505050"/>
<rect x="185.121" width="103.628" height="103.628" rx="51.4627" fill="#C8DEFF"/>
<path d="M235.88 46.4531V47.7969C235.88 49.5781 235.88 51.5781 235.301 54.5938L233.301 54.3906C233.841 51.7031 233.864 49.7031 233.88 48.0312H225.505V46.4531H235.88ZM237.13 56.0781V57.7031H224.161V56.0781H228.801V51.1875H230.786V56.0781H237.13ZM249.808 45.2344V53.5625H247.917V50.125H246.636V53.5H244.761V45.4844H246.636V48.5H247.917V45.2344H249.808ZM249.808 54.1094V59.4375H247.823V55.7188H239.886V54.1094H249.808ZM243.792 46.2031C243.792 49.7812 242.073 52.1875 238.37 53.6562L237.433 52.1719C240.112 51.1875 241.456 49.7188 241.761 47.7969H238.12V46.2031H243.792Z" fill="#383838"/>
<path d="M42.097 49.0833C41.9772 46.4313 43.3668 43.6357 46.3665 43.6549C47.6579 43.6166 47.6795 45.4891 46.412 45.5345C43.6232 45.5704 43.9514 48.6362 43.9826 50.6162C44.0808 52.0128 42.1593 51.9937 42.1137 50.7693C42.1018 50.2527 42.097 49.7482 42.097 49.2316C42.097 49.1814 42.097 49.0833 42.097 49.0833Z" fill="white"/>
<path d="M27.5559 46.2348C27.3906 44.085 24.8294 42.9514 23.0564 44.1902C22.9462 44.2667 22.8503 44.3074 22.7569 44.3169C22.6635 44.3074 22.5676 44.2667 22.4574 44.1902C20.6844 42.9538 18.1256 44.085 17.9603 46.2348C17.8453 47.7534 17.9052 49.2863 17.9147 50.8144C17.9171 51.3189 18.3077 51.6753 18.7725 51.6872C18.8803 51.68 18.9761 51.6657 19.0648 51.6466C19.4697 51.5581 19.7524 51.1922 19.7524 50.7761V48.6214C19.7572 47.8849 19.7213 47.5836 19.7428 46.8375C19.7884 45.3285 21.6787 45.2639 21.8273 46.6318C21.8273 46.6485 21.8273 46.6677 21.8321 46.6868V50.6207C21.8321 51.1276 22.2442 51.5413 22.7521 51.5413C22.7521 51.5413 22.7521 51.5413 22.7569 51.5413C22.7617 51.5413 22.7569 51.5413 22.7617 51.5413C23.2696 51.5413 23.6841 51.13 23.6841 50.6207V46.6868C23.6841 46.6677 23.6841 46.6485 23.6889 46.6318C23.8375 45.2639 25.7302 45.3285 25.7758 46.8375C25.7973 47.5836 25.7614 47.8849 25.7662 48.6214V50.7761C25.7662 51.1898 26.0489 51.5581 26.4538 51.6466C26.5425 51.6657 26.6383 51.68 26.7461 51.6872C27.2109 51.6729 27.6015 51.3189 27.6063 50.8144C27.6158 49.2886 27.6781 47.7558 27.5607 46.2348H27.5559Z" fill="white"/>
<path d="M35.2081 44.7759C35.2464 45.7563 35.2296 46.7416 35.2081 47.7245C35.1242 49.8839 32.5845 50.2809 31.3722 48.9728C31.3722 48.9728 31.3674 48.968 31.365 48.9656C31.3626 48.9632 31.3578 48.9584 31.3554 48.9536C30.6965 48.241 30.7564 46.3685 30.7588 46.1533C30.7588 46.1055 30.7612 46.0576 30.7636 46.0098L30.7516 44.8691C30.6893 44.1421 30.4641 43.6543 29.8052 43.6543C29.223 43.6543 28.8876 44.0752 28.8828 44.7328C28.9211 46.8229 28.672 49.3052 30.3467 50.728C31.6477 51.8329 33.7298 52.0051 35.2129 50.8787L35.2296 53.3108C35.2656 53.8823 35.6465 54.2338 36.1497 54.2649C36.751 54.2601 37.1032 53.8871 37.1032 53.239C37.1056 50.41 37.1056 47.581 37.1032 44.7519C37.132 43.3315 35.2176 43.2932 35.2009 44.7735L35.2081 44.7759Z" fill="white"/>
<path d="M55.1562 45.9335C54.3511 44.2523 52.4009 43.3579 50.6662 43.743C45.4047 44.9123 47.034 52.5266 52.293 51.5987C53.0981 51.4409 54.4997 51.1108 53.9295 50.0538C53.3161 48.9155 50.9801 51.405 49.6288 48.741L49.4491 48.387L54.4733 48.454C54.5859 48.4468 54.7009 48.4444 54.8136 48.4349C56.1241 48.2699 55.4365 46.6987 55.1538 45.9311L55.1562 45.9335ZM49.4994 46.9068C49.6503 45.0917 53.2083 44.831 53.63 46.9068H49.4994Z" fill="white"/>
<path d="M72.6673 49.5369C72.1657 48.939 71.4011 49.4299 71.1308 49.6341C69.677 50.4993 67.7899 49.5223 67.7801 47.9303C67.7777 47.8161 67.7752 47.7116 67.7728 47.6071V45.8693V45.4026H70.5366C71.048 45.4026 71.4644 44.987 71.4644 44.4766C71.4644 43.9662 71.048 43.5506 70.5366 43.5506H67.7728V42.3573C67.5804 40.9695 65.9928 40.899 65.8394 42.3402V42.3986L65.8369 45.128C65.72 48.3143 65.8077 51.2358 69.2874 51.768C70.9652 52.0111 73.656 51.0656 72.6673 49.5344V49.5369Z" fill="white"/>
<path d="M81.4602 48.1673C81.5608 43.9321 76.1005 41.7368 73.7429 45.929C72.6552 47.9425 73.5656 50.5587 75.6764 51.4555C76.8744 51.9648 78.0556 51.929 79.2152 51.3216C79.2703 51.2929 79.311 51.2881 79.3518 51.2952C79.5219 51.6635 79.8957 51.9218 80.3293 51.9218H80.382C80.9786 51.9218 81.4602 51.4387 81.4602 50.8457V48.1697H81.4578L81.4602 48.1673ZM77.3033 49.9776C74.4689 49.9082 74.4521 45.6229 77.3128 45.5822C80.1736 45.5511 80.1376 49.9991 77.3033 49.9776Z" fill="white"/>
<path d="M85.0476 48.8417C85.0141 47.7273 85.0476 46.6105 85.0476 45.4961V45.4555C85.0476 45.4555 85.0476 45.4555 85.0452 45.4555C85.0404 45.3861 85.0428 45.2881 85.0476 45.1661V42.3491C85.0476 42.0693 85.0141 41.7871 84.9206 41.524C84.7961 41.1677 84.602 40.9046 84.3097 40.8138C83.8377 40.6679 83.4663 40.9692 83.2866 41.3614C83.2219 41.5049 83.1956 41.6603 83.1884 41.8158H83.1836V44.2813C83.1836 44.2813 83.1836 44.298 83.1836 44.3052V48.7891C83.1836 49.0019 83.2219 49.3487 83.2699 49.5567C83.555 50.762 84.4115 51.4974 85.5532 51.6396C85.8143 51.6946 86.2025 51.7018 86.3438 51.6659C86.5259 51.6205 86.7722 51.342 86.8489 50.9809C86.9457 49.4474 85.0452 50.0931 85.0476 48.8393V48.8417Z" fill="white"/>
<path d="M64.0367 46.0339C63.9887 45.9144 63.9264 45.7996 63.857 45.692C61.2981 41.6673 56.3194 43.9821 56.4032 48.4493H56.3984V50.6685H56.4032C56.4296 51.2663 56.6237 51.637 57.4407 51.6896C58.0564 51.6513 58.332 51.2902 58.3559 50.5561V48.2436C58.3703 46.8303 58.6626 45.5341 60.553 45.6011C60.9507 45.6155 61.346 45.7255 61.6695 45.9598C63.0519 46.9666 62.4098 49.2456 62.5536 50.7904C62.6207 52.1081 64.5781 51.8689 64.4152 50.5943C64.3913 49.0806 64.6165 47.4616 64.0343 46.0339H64.0367Z" fill="white"/>
<ellipse cx="39.5533" cy="42.5553" rx="1.44782" ry="1.47622" fill="#C7DEFF"/>
<path d="M36.7383 63.5203C36.7483 61.6306 37.2811 60.0526 38.2259 58.7057H39.2109C38.5174 59.7008 37.854 61.7311 37.854 63.5203C37.854 65.3195 38.5174 67.3398 39.2109 68.3449H38.2259C37.2811 66.998 36.7483 65.42 36.7383 63.5203ZM43.2053 58.8565V61.5301H40.9538V62.7966C42.0544 62.7865 42.8837 62.7363 43.8687 62.5553L43.9692 63.3192C42.8535 63.5303 41.9288 63.5605 40.6121 63.5705H40.019V60.8165H42.2806V59.6103H39.9989V58.8565H43.2053ZM47.2962 58.1529V64.9174H46.3916V58.1529H47.2962ZM45.497 58.3137V64.6862H44.5823V61.3592H43.5571V60.5652H44.5823V58.3137H45.497ZM47.5575 66.1839V66.9578H41.3257V64.2339H42.2705V66.1839H47.5575ZM52.8284 58.565V59.3289H49.602V60.1631H52.6576V60.8969H49.602V61.7914C51.3006 61.7864 52.2605 61.7512 53.4215 61.5703L53.5119 62.3242C52.2656 62.5252 51.2303 62.5654 49.3507 62.5654H48.6471V58.565H52.8284ZM55.3312 58.1428V60.0425H56.6379V60.8265H55.3312V62.8267H54.3763V58.1428H55.3312ZM55.3312 63.2388V65.4501H50.4664V66.3145H55.6428V67.0583H49.5316V64.7465H54.3864V63.9927H49.5115V63.2388H55.3312ZM60.0191 60.4345C60.0091 62.0327 60.9338 63.661 62.2807 64.3143L61.6877 65.0782C60.7077 64.5706 59.9488 63.5605 59.5568 62.3543C59.1497 63.6409 58.3607 64.7164 57.3354 65.2491L56.7424 64.4751C58.1295 63.8118 59.0643 62.0829 59.0643 60.4345V58.8967H60.0191V60.4345ZM63.909 58.1428V61.7311H65.3564V62.5453H63.909V67.1488H62.9541V58.1428H63.909ZM68.0039 63.5203C67.9939 65.42 67.4611 66.998 66.5163 68.3449H65.5313C66.2248 67.3398 66.8882 65.3195 66.8882 63.5203C66.8882 61.7311 66.2248 59.7008 65.5313 58.7057H66.5163C67.4611 60.0526 67.9939 61.6306 68.0039 63.5203Z" fill="white" fill-opacity="0.6"/>
<path d="M184.513 147.369C184.367 147.603 184.439 147.912 184.674 148.057C184.909 148.203 185.217 148.131 185.362 147.896L184.513 147.369ZM211.487 105.514C211.424 105.245 211.155 105.078 210.886 105.141L206.505 106.167C206.236 106.23 206.069 106.499 206.132 106.768C206.195 107.037 206.464 107.204 206.733 107.141L210.627 106.229L211.539 110.123C211.602 110.392 211.871 110.559 212.14 110.496C212.409 110.433 212.576 110.164 212.513 109.895L211.487 105.514ZM185.362 147.896L185.905 147.021L185.056 146.494L184.513 147.369L185.362 147.896ZM186.991 145.271L188.077 143.52L187.227 142.993L186.142 144.743L186.991 145.271ZM189.163 141.77L190.249 140.02L189.399 139.493L188.313 141.243L189.163 141.77ZM191.335 138.27L192.421 136.52L191.571 135.993L190.485 137.743L191.335 138.27ZM193.507 134.77L194.593 133.019L193.743 132.492L192.657 134.242L193.507 134.77ZM195.679 131.269L196.765 129.519L195.915 128.992L194.829 130.742L195.679 131.269ZM197.851 127.769L198.937 126.019L198.087 125.491L197.001 127.242L197.851 127.769ZM200.023 124.268L201.108 122.518L200.259 121.991L199.173 123.741L200.023 124.268ZM202.194 120.768L203.28 119.018L202.431 118.491L201.345 120.241L202.194 120.768ZM204.366 117.268L205.452 115.518L204.602 114.99L203.517 116.741L204.366 117.268ZM206.538 113.767L207.624 112.017L206.774 111.49L205.688 113.24L206.538 113.767ZM208.71 110.267L209.796 108.517L208.946 107.99L207.86 109.74L208.71 110.267ZM210.882 106.767L211.425 105.892L210.575 105.364L210.032 106.239L210.882 106.767Z" fill="#8C8C8C"/>
<path d="M80.0662 105.072C79.9363 104.829 79.6334 104.736 79.3898 104.866C79.1461 104.996 79.0539 105.299 79.1838 105.543L80.0662 105.072ZM102.736 149.406C103.001 149.487 103.28 149.338 103.36 149.074L104.671 144.769C104.752 144.505 104.603 144.225 104.338 144.145C104.074 144.064 103.795 144.213 103.714 144.477L102.549 148.304L98.7228 147.139C98.4586 147.058 98.1793 147.207 98.0988 147.472C98.0184 147.736 98.1673 148.015 98.4315 148.096L102.736 149.406ZM79.1838 105.543L79.6683 106.452L80.5507 105.981L80.0662 105.072L79.1838 105.543ZM80.6374 108.269L81.6064 110.087L82.4888 109.616L81.5198 107.799L80.6374 108.269ZM82.5754 111.904L83.5445 113.722L84.4269 113.251L83.4579 111.434L82.5754 111.904ZM84.5135 115.539L85.4826 117.357L86.365 116.886L85.3959 115.069L84.5135 115.539ZM86.4516 119.174L87.4206 120.992L88.3031 120.521L87.334 118.704L86.4516 119.174ZM88.3897 122.809L89.3587 124.627L90.2411 124.156L89.2721 122.339L88.3897 122.809ZM90.3278 126.444L91.2968 128.262L92.1792 127.791L91.2102 125.974L90.3278 126.444ZM92.2659 130.079L93.2349 131.897L94.1173 131.426L93.1483 129.609L92.2659 130.079ZM94.2039 133.714L95.173 135.532L96.0554 135.061L95.0864 133.244L94.2039 133.714ZM96.142 137.349L97.1111 139.167L97.9935 138.696L97.0244 136.879L96.142 137.349ZM98.0801 140.984L99.0491 142.802L99.9316 142.331L98.9625 140.514L98.0801 140.984ZM100.018 144.619L100.987 146.437L101.87 145.966L100.901 144.149L100.018 144.619ZM101.956 148.254L102.441 149.163L103.323 148.693L102.839 147.784L101.956 148.254Z" fill="#8C8C8C"/>
<path d="M208.357 130.219V132.8H210.419V130.219H211.481V137.36H207.271V130.219H208.357ZM208.357 136.431H210.419V133.705H208.357V136.431ZM216.209 129.218V140.025H215.111V134.392H213.772V139.495H212.687V129.423H213.772V133.452H215.111V129.218H216.209ZM222.763 133.005V134.513H227.129V135.442H217.275V134.513H221.629V133.005H222.763ZM222.775 129.845C222.775 131.22 224.464 132.426 226.55 132.692L226.104 133.596C224.385 133.325 222.872 132.487 222.196 131.293C221.503 132.487 219.989 133.325 218.264 133.596L217.842 132.692C219.916 132.426 221.605 131.208 221.617 129.845V129.387H222.775V129.845ZM222.196 136.238C224.536 136.238 225.923 136.913 225.923 138.132C225.923 139.338 224.536 140.013 222.196 140.001C219.844 140.013 218.445 139.338 218.445 138.132C218.445 136.913 219.844 136.238 222.196 136.238ZM222.196 137.118C220.532 137.118 219.603 137.468 219.603 138.132C219.603 138.783 220.532 139.133 222.196 139.133C223.836 139.133 224.777 138.783 224.777 138.132C224.777 137.468 223.836 137.118 222.196 137.118ZM236.052 129.906V134.344H230.914V129.906H236.052ZM232.036 130.822V133.452H234.919V130.822H232.036ZM239.297 129.218V135.394H238.163V129.218H239.297ZM239.55 136.093V136.962H236.39C236.469 137.902 237.97 138.885 239.936 139.109L239.55 139.989C237.856 139.79 236.463 139.06 235.811 138.107C235.148 139.072 233.725 139.778 232.024 139.989L231.626 139.109C233.592 138.922 235.13 137.927 235.208 136.962H232.06V136.093H235.232V135.08H236.366V136.093H239.55ZM252.43 129.218V134.778H251.284V132.004H249.004V131.076H251.284V129.218H252.43ZM252.43 135.285V137.975H246.507V138.976H252.804V139.893H245.386V137.106H251.296V136.19H245.362V135.285H252.43ZM247.219 130.509C247.219 131.884 248.208 133.162 249.836 133.681L249.233 134.573C248.045 134.163 247.147 133.349 246.676 132.318C246.2 133.476 245.271 134.386 243.999 134.827L243.383 133.91C245.072 133.367 246.073 132.028 246.085 130.509V129.568H247.219V130.509ZM262.735 129.218V140.025H261.589V129.218H262.735ZM257.85 132.692C257.85 134.417 258.996 136.178 260.673 136.889L260.045 137.77C258.803 137.227 257.808 136.105 257.307 134.742C256.819 136.184 255.842 137.384 254.581 137.951L253.942 137.07C255.619 136.322 256.728 134.501 256.728 132.692V131.98H254.268V131.063H256.716V129.435H257.85V131.063H260.275V131.98H257.85V132.692Z" fill="#505050"/>
<path d="M43.7208 129.218V140.025H42.6232V134.441H41.224V139.47H40.1747V129.435H41.224V133.5H42.6232V129.218H43.7208ZM38.86 130.521V131.449H35.9531V136.455C37.2799 136.443 38.281 136.383 39.4389 136.166L39.5234 137.106C38.2207 137.372 37.111 137.42 35.531 137.432H34.8073V130.521H38.86ZM53.4472 129.761V130.581C53.4472 131.431 53.4472 132.396 53.1698 133.705H54.7016V134.646H44.8111V133.705H52.0119C52.3014 132.445 52.3135 131.522 52.3135 130.702H46.0535V129.761H53.4472ZM53.4593 136.021V139.893H46.0173V136.021H53.4593ZM47.139 136.925V138.964H52.3255V136.925H47.139ZM61.8638 132.402C61.8638 134.212 63.0458 136.081 64.7103 136.793L64.0831 137.685C62.8106 137.124 61.7975 135.936 61.2969 134.489C60.7964 136.033 59.7772 137.348 58.5228 137.963L57.8594 137.058C59.4877 136.298 60.6938 134.26 60.7059 132.402V131.256H58.2333V130.304H64.3244V131.256H61.8638V132.402ZM66.8332 129.218V140.025H65.6873V129.218H66.8332ZM70.6374 135.382V136.732H75.7394V135.382H76.8612V139.893H69.5036V135.382H70.6374ZM70.6374 138.952H75.7394V137.625H70.6374V138.952ZM76.8853 129.688V130.509C76.8853 131.335 76.8853 132.264 76.6079 133.572H78.1397V134.501H68.2492V133.572H75.4862C75.7394 132.33 75.7515 131.419 75.7515 130.629H69.4915V129.688H76.8853Z" fill="#505050"/>
<rect x="93" y="143" width="103.628" height="103.628" rx="51.4627" fill="white"/>
<path d="M137.89 181.667V195.387H136.066V181.667H137.89ZM135.086 181.893V194.754H133.276V187.924H131.467V186.371H133.276V181.893H135.086ZM130.367 185.346C130.367 187.622 131.075 189.929 133.08 191.075L131.95 192.492C130.728 191.769 129.922 190.54 129.462 189.07C128.987 190.668 128.158 192.025 126.899 192.794L125.738 191.377C127.758 190.14 128.512 187.668 128.512 185.346V184.607H126.266V183.069H132.447V184.607H130.367V185.346ZM151.541 192.236V193.789H138.982V192.236H144.289V189.175H146.218V192.236H151.541ZM150.44 182.707V184.26H146.264C146.422 186.07 148.126 187.751 151.073 188.18L150.319 189.703C147.915 189.281 146.136 188.105 145.254 186.477C144.379 188.135 142.615 189.341 140.248 189.778L139.494 188.256C142.344 187.796 144.055 186.077 144.213 184.26H140.022V182.707H150.44ZM156.989 184.773C156.974 187.23 158.03 189.718 160.231 190.774L159.07 192.311C157.6 191.588 156.613 190.231 156.04 188.572C155.444 190.351 154.381 191.806 152.828 192.568L151.637 191.015C153.959 189.944 155.06 187.321 155.06 184.773V182.722H156.989V184.773ZM162.764 181.667V186.959H164.784V188.587H162.764V195.387H160.834V181.667H162.764Z" fill="#383838"/>
<path d="M129.613 206.226C129.623 204.336 130.156 202.758 131.101 201.411H132.086C131.392 202.406 130.729 204.437 130.729 206.226C130.729 208.025 131.392 210.045 132.086 211.05H131.101C130.156 209.704 129.623 208.126 129.613 206.226ZM136.553 206.507C138.503 206.507 139.729 207.12 139.739 208.176C139.729 209.221 138.503 209.844 136.553 209.834C134.623 209.844 133.386 209.221 133.386 208.176C133.386 207.12 134.623 206.507 136.553 206.507ZM136.553 207.231C135.186 207.231 134.331 207.583 134.341 208.176C134.331 208.759 135.186 209.101 136.553 209.101C137.93 209.101 138.784 208.759 138.794 208.176C138.784 207.583 137.93 207.231 136.553 207.231ZM139.669 201.291V202.044C139.669 202.768 139.669 203.512 139.417 204.437L138.482 204.336C138.724 203.416 138.724 202.753 138.724 202.055H133.457V201.291H139.669ZM140.694 204.99V205.763H132.502V204.99H135.789V203.301H136.723V204.99H140.694ZM143.12 205.985V207.11H147.372V205.985H148.307V209.744H142.175V205.985H143.12ZM143.12 208.96H147.372V207.854H143.12V208.96ZM148.327 201.24V201.924C148.327 202.612 148.327 203.386 148.096 204.477H149.372V205.251H141.13V204.477H147.161C147.372 203.442 147.382 202.683 147.382 202.024H142.165V201.24H148.327ZM152.894 203.14C152.884 204.738 153.809 206.367 155.156 207.02L154.563 207.784C153.583 207.276 152.824 206.266 152.432 205.06C152.025 206.346 151.236 207.422 150.21 207.955L149.617 207.181C151.004 206.517 151.939 204.788 151.939 203.14V201.602H152.894V203.14ZM156.784 200.848V204.437H158.231V205.251H156.784V209.854H155.829V200.848H156.784ZM160.879 206.226C160.869 208.126 160.336 209.704 159.391 211.05H158.406C159.1 210.045 159.763 208.025 159.763 206.226C159.763 204.437 159.1 202.406 158.406 201.411H159.391C160.336 202.758 160.869 204.336 160.879 206.226Z" fill="#383838" fill-opacity="0.7"/>
</svg>
