<svg width="111" height="111" viewBox="0 0 111 111" fill="none" xmlns="http://www.w3.org/2000/svg">
<path d="M29.5 28.5L73.5 28.5" stroke="#191919" stroke-width="3.29154" stroke-linecap="round" stroke-linejoin="round"/>
<path d="M29.2188 39.2246H73.1059" stroke="#191919" stroke-width="3.29154" stroke-linecap="round" stroke-linejoin="round"/>
<path d="M29.2188 50.1963H62.1341" stroke="#191919" stroke-width="3.29154" stroke-linecap="round" stroke-linejoin="round"/>
<path d="M69.8955 97.2448L91.9488 69.0198C93.8689 66.5512 93.5123 63.0402 91.1259 61.175L89.5076 59.9133C87.1212 58.0481 83.6102 58.5418 81.6902 61.0105L59.582 89.2902L60.1306 99.2745L69.8681 97.4093V97.2722L69.8955 97.2448Z" stroke="#3182F7" stroke-width="3.29154" stroke-linecap="round" stroke-linejoin="round"/>
<path d="M78.125 65.562L88.3836 73.5988" stroke="#3182F7" stroke-width="3.29154" stroke-linecap="round" stroke-linejoin="round"/>
<path d="M47.2139 95.0218H20.7719C18.3032 95.0218 16.2734 93.0194 16.2734 90.5233V15.9701C16.2734 13.5014 18.2758 11.4717 20.7719 11.4717H82.5979C85.0665 11.4717 87.0963 13.474 87.0963 15.9701V48.1449" stroke="#191919" stroke-width="3.29154" stroke-linecap="round" stroke-linejoin="round"/>
</svg>
