<svg width="101" height="101" viewBox="0 0 101 101" fill="none" xmlns="http://www.w3.org/2000/svg">
<path d="M32.529 65.9523C32.529 69.5273 28.879 71.9523 25.579 70.5773C19.079 67.8523 14.5039 61.4273 14.5039 53.9273C14.5039 46.4273 19.079 40.0023 25.579 37.2773C28.879 35.9023 32.529 38.3273 32.529 41.9023V65.9523Z" stroke="#191919" stroke-width="3" stroke-linecap="round" stroke-linejoin="round"/>
<path d="M68.7539 41.9023C68.7539 38.3273 72.4039 35.9023 75.7039 37.2773C82.2039 40.0023 86.7789 46.4273 86.7789 53.9273C86.7789 61.4273 82.2039 67.8523 75.7039 70.5773C72.4039 71.9523 68.7539 69.5273 68.7539 65.9523V41.9023Z" stroke="#191919" stroke-width="3" stroke-linecap="round" stroke-linejoin="round"/>
<path d="M24.25 36.5777C24.25 35.7777 24.275 35.0028 24.35 34.2028C25.55 20.7278 36.85 10.1777 50.625 10.1777C64.4 10.1777 75.7001 20.7278 76.9001 34.2028C76.9751 34.9778 77 35.7777 77 36.5777" stroke="#191919" stroke-width="3" stroke-miterlimit="10" stroke-linecap="round"/>
<path d="M75.7523 71.9526C72.3273 82.5526 62.3773 87.7026 50.6523 87.7026" stroke="#191919" stroke-width="3" stroke-miterlimit="10" stroke-linecap="round"/>
</svg>
