<svg width="39" height="40" viewBox="0 0 39 40" fill="none" xmlns="http://www.w3.org/2000/svg">
<rect width="39" height="39" rx="19.5" fill="#E0ECFE"/>
<path d="M17.3266 23.7397C17.3504 20.7881 18.1359 19.8597 19.5641 18.979C20.5877 18.3125 21.3732 17.5746 21.3732 16.4796C21.3732 15.2894 20.4449 14.5039 19.3023 14.5039C18.1835 14.5039 17.16 15.2418 17.1124 16.6462H13.7322C13.8036 13.2899 16.2792 11.6951 19.3261 11.6951C22.6348 11.6951 24.9914 13.4327 24.9914 16.3606C24.9914 18.3125 23.9916 19.5741 22.4206 20.5024C21.0876 21.3118 20.4925 22.0735 20.4687 23.7397V24.0016H17.3266V23.7397ZM18.9691 29.3812C17.8503 29.3812 16.9457 28.4767 16.9695 27.3817C16.9457 26.2867 17.8503 25.406 18.9691 25.406C20.0164 25.406 20.9448 26.2867 20.9448 27.3817C20.9448 28.4767 20.0164 29.3812 18.9691 29.3812Z" fill="#3182F7"/>
</svg>
