<svg width="31" height="30" viewBox="0 0 31 30" fill="none" xmlns="http://www.w3.org/2000/svg">
<path d="M10.0638 19.725C10.0638 20.7975 8.96877 21.525 7.97877 21.1125C6.02877 20.295 4.65625 18.3675 4.65625 16.1175C4.65625 13.8675 6.02877 11.94 7.97877 11.1225C8.96877 10.71 10.0638 11.4375 10.0638 12.51V19.725Z" stroke="white" stroke-width="2" stroke-linecap="round" stroke-linejoin="round"/>
<path d="M20.9297 12.51C20.9297 11.4375 22.0247 10.71 23.0147 11.1225C24.9647 11.94 26.3372 13.8675 26.3372 16.1175C26.3372 18.3675 24.9647 20.295 23.0147 21.1125C22.0247 21.525 20.9297 20.7975 20.9297 19.725V12.51Z" stroke="white" stroke-width="2" stroke-linecap="round" stroke-linejoin="round"/>
<path d="M7.57812 10.9127C7.57812 10.6727 7.58563 10.4402 7.60813 10.2002C7.96813 6.15769 11.3581 2.99268 15.4906 2.99268C19.6231 2.99268 23.0131 6.15769 23.3731 10.2002C23.3956 10.4327 23.4031 10.6727 23.4031 10.9127" stroke="white" stroke-width="2" stroke-miterlimit="10" stroke-linecap="round"/>
<path d="M23.03 21.5251C22.0025 24.7051 19.0175 26.2501 15.5 26.2501" stroke="white" stroke-width="2" stroke-miterlimit="10" stroke-linecap="round"/>
</svg>
