<svg width="111" height="111" viewBox="0 0 111 111" fill="none" xmlns="http://www.w3.org/2000/svg">
<path d="M55.5983 82.9074H16.6759C13.8781 82.9074 11.6289 80.6308 11.6289 77.8604V28.1857C11.6289 25.3879 13.9056 23.1387 16.6759 23.1387H89.0897C91.8875 23.1387 94.1367 25.4153 94.1367 28.1857V42.8056" stroke="#191919" stroke-width="3.29154" stroke-linecap="round" stroke-linejoin="round"/>
<path d="M15.4688 35.7817H92.573" stroke="#191919" stroke-width="4.38872" stroke-linecap="square" stroke-linejoin="round"/>
<path d="M21.7227 71.167H30.3081" stroke="#191919" stroke-width="3.29154" stroke-linecap="round" stroke-linejoin="round"/>
<path d="M80.1189 87.2938C90.7685 87.2938 99.4018 78.6606 99.4018 68.0109C99.4018 57.3613 90.7685 48.728 80.1189 48.728C69.4692 48.728 60.8359 57.3613 60.8359 68.0109C60.8359 78.6606 69.4692 87.2938 80.1189 87.2938Z" stroke="#3182F7" stroke-width="3.29154" stroke-linecap="round" stroke-linejoin="round"/>
<path d="M72.3008 67.0792L77.8141 74.4302L87.9082 61.5933" stroke="#3182F7" stroke-width="3.29154" stroke-linecap="round" stroke-linejoin="round"/>
</svg>
