<svg width="100" height="100" viewBox="0 0 100 100" fill="none" xmlns="http://www.w3.org/2000/svg">
<path d="M46.1758 31.6748H66.1758" stroke="#191919" stroke-width="3" stroke-linecap="round" stroke-linejoin="round"/>
<path d="M26.1758 41.6748H66.1758" stroke="#191919" stroke-width="3" stroke-linecap="round" stroke-linejoin="round"/>
<path d="M26.1758 51.6748H56.1758" stroke="#191919" stroke-width="3" stroke-linecap="round" stroke-linejoin="round"/>
<path d="M27.0742 26.7239L31.1492 32.1489L38.5992 22.6489" stroke="#191919" stroke-width="3" stroke-linecap="round" stroke-linejoin="round"/>
<path d="M63.2516 88.176L83.3516 62.4509C85.1016 60.2009 84.7766 57.001 82.6016 55.301L81.1266 54.151C78.9516 52.451 75.7516 52.901 74.0016 55.151L53.8516 80.926L54.3516 90.0259L63.2266 88.326V88.201L63.2516 88.176Z" stroke="#3182F7" stroke-width="3" stroke-linecap="round" stroke-linejoin="round"/>
<path d="M70.75 59.2993L80.1 66.6243" stroke="#3182F7" stroke-width="3" stroke-linecap="round" stroke-linejoin="round"/>
<path d="M42.575 86.15H18.475C16.225 86.15 14.375 84.3249 14.375 82.0499V14.1C14.375 11.85 16.2 10 18.475 10H74.825C77.075 10 78.925 11.825 78.925 14.1V43.425" stroke="#191919" stroke-width="3" stroke-linecap="round" stroke-linejoin="round"/>
</svg>
