<svg width="110" height="111" viewBox="0 0 110 111" fill="none" xmlns="http://www.w3.org/2000/svg">
<path d="M30.5 28.5L74.5 28.5" stroke="#191919" stroke-width="3.29154" stroke-linecap="round" stroke-linejoin="round"/>
<path d="M30.7812 39.4541H74.6684" stroke="#191919" stroke-width="3.29154" stroke-linecap="round" stroke-linejoin="round"/>
<path d="M30.7812 50.4258H54.9355" stroke="#191919" stroke-width="2.81966" stroke-linecap="round" stroke-linejoin="round"/>
<path d="M48.7764 95.2508H22.3344C19.8657 95.2508 17.8359 93.2484 17.8359 90.7523V16.1991C17.8359 13.7304 19.8383 11.7007 22.3344 11.7007H84.1604C86.629 11.7007 88.6588 13.703 88.6588 16.1991V48.3739" stroke="#191919" stroke-width="3.29154" stroke-linecap="round" stroke-linejoin="round"/>
<path d="M78.0086 97.879C88.5434 97.879 97.0836 89.3388 97.0836 78.804C97.0836 68.2692 88.5434 59.729 78.0086 59.729C67.4738 59.729 58.9336 68.2692 58.9336 78.804C58.9336 89.3388 67.4738 97.879 78.0086 97.879Z" stroke="#3182F7" stroke-width="3.25605" stroke-linecap="round" stroke-linejoin="round"/>
<path d="M70.2773 77.8828L75.7312 85.1546L85.7164 72.4561" stroke="#3182F7" stroke-width="3.25605" stroke-linecap="round" stroke-linejoin="round"/>
</svg>
