<svg width="20" height="20" viewBox="0 0 20 20" fill="none" xmlns="http://www.w3.org/2000/svg">
<rect width="20" height="20" fill="#747474"/>
<g id="&#237;&#153;&#136;">
<path d="M-2080 -1752C-2080 -1765.25 -2069.25 -1776 -2056 -1776H3163C3176.25 -1776 3187 -1765.25 3187 -1752V4389C3187 4402.25 3176.25 4413 3163 4413H-2056C-2069.25 4413 -2080 4402.25 -2080 4389V-1752Z" fill="#404040"/>
<path d="M-2056 -1775H3163V-1777H-2056V-1775ZM3186 -1752V4389H3188V-1752H3186ZM3163 4412H-2056V4414H3163V4412ZM-2079 4389V-1752H-2081V4389H-2079ZM-2056 4412C-2068.7 4412 -2079 4401.7 -2079 4389H-2081C-2081 4402.81 -2069.81 4414 -2056 4414V4412ZM3186 4389C3186 4401.7 3175.7 4412 3163 4412V4414C3176.81 4414 3188 4402.81 3188 4389H3186ZM3163 -1775C3175.7 -1775 3186 -1764.7 3186 -1752H3188C3188 -1765.81 3176.81 -1777 3163 -1777V-1775ZM-2056 -1777C-2069.81 -1777 -2081 -1765.81 -2081 -1752H-2079C-2079 -1764.7 -2068.7 -1775 -2056 -1775V-1777Z" fill="black" fill-opacity="0.1"/>
<g id="&#234;&#178;&#128;&#236;&#131;&#137;" clip-path="url(#clip0_1970_13137)">
<rect width="375" height="812" transform="translate(-34 -63)" fill="white"/>
<g id="Group 5330">
<rect width="375" height="50" transform="translate(-34 -15)" fill="white"/>
<g id="Frame 5466">
<rect x="-18" y="-10" width="288" height="40" rx="20" fill="#F5F5F5"/>
<g id="&#234;&#178;&#128;&#236;&#131;&#137;_2" clip-path="url(#clip1_1970_13137)">
<path id="Union" fill-rule="evenodd" clip-rule="evenodd" d="M12.8719 4.39378C15.3699 6.57808 15.6242 10.3739 13.4399 12.8719C11.2556 15.3699 7.45986 15.6242 4.96183 13.4399C2.46381 11.2556 2.20948 7.45986 4.39378 4.96183C6.57808 2.46381 10.3739 2.20948 12.8719 4.39378ZM15.433 13.8791C18.0262 10.4809 17.5731 5.60631 14.3081 2.75132C10.9029 -0.226168 5.7288 0.120509 2.75132 3.52564C-0.226168 6.93077 0.120509 12.1049 3.52564 15.0824C6.51236 17.694 10.8601 17.7482 13.8927 15.4243L17.4217 18.9533C17.8477 19.3793 18.5384 19.3793 18.9645 18.9533C19.3905 18.5273 19.3905 17.8366 18.9645 17.4105L15.433 13.8791Z" fill="#191919"/>
</g>
</g>
</g>
</g>
</g>
<defs>
<clipPath id="clip0_1970_13137">
<rect width="375" height="812" fill="white" transform="translate(-34 -63)"/>
</clipPath>
<clipPath id="clip1_1970_13137">
<rect width="24" height="24" fill="white" transform="translate(-2 -2)"/>
</clipPath>
</defs>
</svg>
