<svg width="20" height="20" viewBox="0 0 20 20" fill="none" xmlns="http://www.w3.org/2000/svg">
<path id="Union" fill-rule="evenodd" clip-rule="evenodd" d="M12.8719 4.39378C15.3699 6.57808 15.6242 10.3739 13.4399 12.8719C11.2556 15.3699 7.45986 15.6242 4.96183 13.4399C2.46381 11.2556 2.20948 7.45986 4.39378 4.96183C6.57808 2.46381 10.3739 2.20948 12.8719 4.39378ZM15.433 13.8791C18.0262 10.4809 17.5731 5.60631 14.3081 2.75132C10.9029 -0.226168 5.7288 0.120509 2.75132 3.52564C-0.226168 6.93077 0.120509 12.1049 3.52564 15.0824C6.51236 17.694 10.8601 17.7482 13.8927 15.4243L17.4217 18.9533C17.8477 19.3793 18.5384 19.3793 18.9645 18.9533C19.3905 18.5273 19.3905 17.8366 18.9645 17.4105L15.433 13.8791Z" fill="#191919"/>
</svg>
