<svg width="32" height="32" viewBox="0 0 32 32" fill="none" xmlns="http://www.w3.org/2000/svg">
<path fill-rule="evenodd" clip-rule="evenodd" d="M9.71337 8.29908C9.3194 7.91203 8.68065 7.91203 8.28669 8.29908C7.89272 8.68613 7.89272 9.31366 8.28669 9.70071L14.8739 16.1723L8.46202 22.4717C8.06806 22.8588 8.06806 23.4863 8.46202 23.8733C8.85599 24.2604 9.49474 24.2604 9.8887 23.8733L16.3006 17.574L22.4551 23.6204C22.8491 24.0075 23.4878 24.0075 23.8818 23.6204C24.2757 23.2334 24.2757 22.6058 23.8818 22.2188L17.7273 16.1723L24.0571 9.95364C24.4511 9.56659 24.4511 8.93906 24.0571 8.55201C23.6631 8.16496 23.0244 8.16496 22.6304 8.55201L16.3006 14.7707L9.71337 8.29908Z" fill="black"/>
</svg>
