<svg width="27" height="25" viewBox="0 0 27 25" fill="none" xmlns="http://www.w3.org/2000/svg">
<path d="M13.3594 0C5.98118 0 0 4.71604 0 10.5334C0 14.2944 2.50055 17.5946 6.26198 19.4582C6.05733 20.1639 4.94699 23.9983 4.90274 24.2995C4.90274 24.2995 4.87619 24.5258 5.02273 24.6122C5.16935 24.6985 5.34168 24.6314 5.34168 24.6314C5.762 24.5727 10.2157 21.4443 10.9866 20.9011C11.7567 21.0101 12.5497 21.0668 13.3594 21.0668C20.7377 21.0668 26.7188 16.3509 26.7188 10.5334C26.7188 4.71604 20.7377 0 13.3594 0Z" fill="#191919"/>
<path fill-rule="evenodd" clip-rule="evenodd" d="M5.97317 14.2105C5.54808 14.2105 5.20241 13.8804 5.20241 13.4744V8.89562H3.99981C3.58275 8.89562 3.2435 8.55696 3.2435 8.1409C3.2435 7.72484 3.58283 7.38626 3.99981 7.38626H7.94652C8.36358 7.38626 8.70283 7.72484 8.70283 8.1409C8.70283 8.55696 8.3635 8.89562 7.94652 8.89562H6.74392V13.4744C6.74392 13.8804 6.39825 14.2105 5.97317 14.2105ZM12.7314 14.2005C12.4101 14.2005 12.1643 14.07 12.0901 13.8601L11.7084 12.861L9.35819 12.8608L8.97636 13.8606C8.90247 14.0701 8.65674 14.2005 8.33536 14.2005C8.16628 14.2007 7.99912 14.1643 7.84541 14.0941C7.63291 13.9961 7.42867 13.7266 7.66271 12.9996L9.50632 8.14708C9.63624 7.77802 10.0307 7.39778 10.5327 7.38634C11.0361 7.3977 11.4306 7.77802 11.5607 8.14783L13.4036 12.9982C13.6381 13.7268 13.4339 13.9965 13.2214 14.0942C13.0676 14.1643 12.9005 14.2006 12.7314 14.2005ZM10.5333 9.30876L11.3032 11.4957H9.76348L10.5333 9.30876ZM14.6439 14.0981C14.2366 14.0981 13.9053 13.7811 13.9053 13.3916V8.15701C13.9053 7.73193 14.2583 7.38626 14.6921 7.38626C15.1259 7.38626 15.4789 7.73193 15.4789 8.15701V12.685H17.1167C17.5241 12.685 17.8554 13.0021 17.8554 13.3916C17.8554 13.7811 17.5241 14.0981 17.1167 14.0981H14.6439ZM18.1551 13.4297C18.1551 13.8548 18.5008 14.2005 18.9259 14.2005C19.1303 14.2001 19.3262 14.1188 19.4708 13.9743C19.6153 13.8298 19.6966 13.6338 19.6969 13.4293V11.7477L19.9643 11.4803L21.7719 13.8752C21.8434 13.9708 21.9363 14.0483 22.0433 14.1015C22.1502 14.1547 22.2681 14.1821 22.3875 14.1816C22.555 14.1819 22.7179 14.1273 22.8511 14.026C22.9321 13.9653 23.0002 13.8891 23.0516 13.8019C23.1029 13.7146 23.1364 13.618 23.1501 13.5177C23.1646 13.4175 23.1589 13.3154 23.1334 13.2174C23.108 13.1194 23.0635 13.0274 23.0022 12.9467L21.105 10.4334L22.8614 8.6772C22.9821 8.55638 23.0427 8.38972 23.0315 8.20795C23.0204 8.02776 22.9399 7.85426 22.8049 7.71933C22.6601 7.57471 22.4669 7.49171 22.2745 7.49171C22.1095 7.49171 21.9575 7.55258 21.847 7.66322L19.6966 9.81358V8.15701C19.6966 7.73193 19.351 7.38626 18.9259 7.38626C18.5008 7.38626 18.1551 7.73193 18.1551 8.15701V13.4297Z" fill="#FFE812"/>
</svg>
