<svg width="71" height="70" viewBox="0 0 71 70" fill="none" xmlns="http://www.w3.org/2000/svg">
<rect x="0.0625" width="70" height="70" rx="35" fill="#EBF3FF"/>
<path fill-rule="evenodd" clip-rule="evenodd" d="M40.0625 26.3047V31.0938H30.0625V26.3047C30.0625 23.5433 32.3011 21.3047 35.0625 21.3047C37.8239 21.3047 40.0625 23.5433 40.0625 26.3047ZM27.5625 31.0938V26.3047C27.5625 22.1626 30.9204 18.8047 35.0625 18.8047C39.2046 18.8047 42.5625 22.1626 42.5625 26.3047V31.0938H43.7734C45.9826 31.0938 47.7734 32.8846 47.7734 35.0938V46.0938C47.7734 48.3029 45.9826 50.0938 43.7734 50.0938H26.3516C24.1424 50.0938 22.3516 48.3029 22.3516 46.0938V35.0938C22.3516 32.8846 24.1424 31.0938 26.3516 31.0938H27.5625ZM24.8516 35.0938C24.8516 34.2653 25.5231 33.5938 26.3516 33.5938H43.7734C44.6019 33.5938 45.2734 34.2653 45.2734 35.0938V46.0938C45.2734 46.9222 44.6019 47.5938 43.7734 47.5938H26.3516C25.5231 47.5938 24.8516 46.9222 24.8516 46.0938V35.0938Z" fill="#3182F7"/>
</svg>
