<svg width="96" height="20" viewBox="0 0 96 20" fill="none" xmlns="http://www.w3.org/2000/svg">
<path d="M33.6056 12.1813C33.4393 8.49925 35.3686 4.61804 39.5333 4.6446C41.3262 4.59148 41.3562 7.19113 39.5965 7.25421C35.7245 7.30401 36.1802 11.5604 36.2235 14.3094C36.3599 16.2484 33.6921 16.2218 33.6289 14.5219C33.6122 13.8048 33.6056 13.1042 33.6056 12.3871C33.6056 12.3174 33.6056 12.1813 33.6056 12.1813Z" fill="#191919"/>
<path d="M13.419 8.22717C13.1895 5.24239 9.63352 3.66866 7.17197 5.38847C7.01896 5.49472 6.8859 5.55116 6.75617 5.56444C6.62644 5.55116 6.49338 5.49472 6.34037 5.38847C3.87881 3.67198 0.326198 5.24239 0.0966749 8.22717C-0.0629933 10.3354 0.0201677 12.4636 0.0334734 14.5852C0.0367998 15.2857 0.579006 15.7804 1.22433 15.797C1.37402 15.7871 1.50708 15.7671 1.63015 15.7406C2.19232 15.6177 2.58484 15.1098 2.58484 14.5321V11.5406C2.59149 10.518 2.54159 10.0997 2.57153 9.06384C2.63473 6.96885 5.25928 6.8792 5.46552 8.77831C5.46552 8.80155 5.46552 8.82811 5.47217 8.85467V14.3162C5.47217 15.0201 6.04432 15.5945 6.74952 15.5945C6.74952 15.5945 6.74952 15.5945 6.75617 15.5945C6.76282 15.5945 6.75617 15.5945 6.76282 15.5945C7.46802 15.5945 8.04349 15.0234 8.04349 14.3162V8.85467C8.04349 8.82811 8.04349 8.80155 8.05015 8.77831C8.25638 6.8792 10.8843 6.96885 10.9475 9.06384C10.9774 10.0997 10.9275 10.518 10.9342 11.5406V14.5321C10.9342 15.1064 11.3267 15.6177 11.8888 15.7406C12.0119 15.7671 12.145 15.7871 12.2947 15.797C12.94 15.7771 13.4822 15.2857 13.4888 14.5852C13.5021 12.4669 13.5886 10.3388 13.4256 8.22717H13.419Z" fill="#191919"/>
<path d="M24.0435 6.20191C24.0967 7.56315 24.0734 8.93104 24.0435 10.2956C23.927 13.2937 20.401 13.8448 18.7179 12.0287C18.7179 12.0287 18.7112 12.0221 18.7079 12.0187C18.7046 12.0154 18.6979 12.0088 18.6946 12.0021C17.7798 11.0127 17.863 8.4131 17.8663 8.11429C17.8663 8.04789 17.8696 7.98149 17.873 7.91508L17.8563 6.33139C17.7698 5.32208 17.4572 4.64478 16.5424 4.64478C15.7341 4.64478 15.2684 5.22911 15.2617 6.14214C15.3149 9.04392 14.969 12.4902 17.2942 14.4657C19.1004 15.9996 21.9911 16.2386 24.0501 14.6748L24.0734 18.0514C24.1233 18.8449 24.6522 19.3329 25.3508 19.3761C26.1857 19.3695 26.6747 18.8515 26.6747 17.9518C26.678 14.0241 26.678 10.0964 26.6747 6.1687C26.7146 4.19656 24.0568 4.14344 24.0335 6.19859L24.0435 6.20191Z" fill="#191919"/>
<path d="M51.7363 7.80884C50.6186 5.4748 47.9109 4.23308 45.5026 4.76761C38.1978 6.39115 40.4597 16.9624 47.7612 15.6742C48.8789 15.4551 50.8249 14.9969 50.0332 13.5294C49.1816 11.949 45.9383 15.4052 44.0622 11.7066L43.8128 11.2153L50.7883 11.3082C50.9446 11.2983 51.1043 11.295 51.2606 11.2817C53.0802 11.0526 52.1255 8.87127 51.733 7.80551L51.7363 7.80884ZM43.8826 9.16012C44.0922 6.64016 49.0319 6.27826 49.6174 9.16012H43.8826Z" fill="#191919"/>
<path d="M76.0478 12.8113C75.3514 11.9812 74.2898 12.6629 73.9145 12.9463C71.8962 14.1476 69.2761 12.7911 69.2626 10.5809C69.2592 10.4223 69.2558 10.2772 69.2524 10.1321V7.71942V7.07154H73.0896C73.7996 7.07154 74.3777 6.49452 74.3777 5.78591C74.3777 5.07729 73.7996 4.50028 73.0896 4.50028H69.2524V2.84347C68.9854 0.91671 66.7811 0.818853 66.5681 2.81985V2.90083L66.5647 6.69024C66.4024 11.114 66.5242 15.17 71.3553 15.909C73.6846 16.2464 77.4204 14.9338 76.0478 12.8079V12.8113Z" fill="#191919"/>
<path d="M88.2597 10.9094C88.3994 5.02953 80.8185 1.98167 77.5453 7.80182C76.0351 10.5974 77.2991 14.2296 80.2297 15.4746C81.8929 16.1818 83.5328 16.132 85.1428 15.2887C85.2193 15.2488 85.2759 15.2422 85.3324 15.2521C85.5686 15.7634 86.0875 16.122 86.6896 16.122H86.7628C87.591 16.122 88.2597 15.4514 88.2597 14.628V10.9128H88.2563L88.2597 10.9094ZM82.4883 13.4228C78.5532 13.3265 78.5299 7.37685 82.5016 7.3204C86.4734 7.27724 86.4235 13.4526 82.4883 13.4228Z" fill="#191919"/>
<path d="M93.2364 11.846C93.1898 10.2988 93.2364 8.74832 93.2364 7.20115V7.14471C93.2364 7.14471 93.2364 7.14471 93.2331 7.14471C93.2264 7.04842 93.2297 6.9123 93.2364 6.74297V2.83188C93.2364 2.44343 93.1898 2.05166 93.0601 1.68645C92.8871 1.19175 92.6177 0.826538 92.2119 0.700374C91.5566 0.497847 91.041 0.916181 90.7915 1.46068C90.7017 1.65989 90.6651 1.87569 90.6551 2.0915H90.6484V5.51453C90.6484 5.51453 90.6484 5.53777 90.6484 5.54773V11.7729C90.6484 12.0684 90.7017 12.5498 90.7682 12.8387C91.164 14.512 92.3532 15.5331 93.9383 15.7305C94.3009 15.8069 94.8397 15.8168 95.036 15.767C95.2888 15.704 95.6307 15.3173 95.7372 14.8159C95.8716 12.6869 93.2331 13.5834 93.2364 11.8427V11.846Z" fill="#191919"/>
<path d="M64.0695 7.94831C64.0029 7.78231 63.9165 7.62294 63.82 7.47353C60.2674 1.88579 53.3551 5.09966 53.4715 11.3016H53.4648V14.3827H53.4715C53.5081 15.2127 53.7775 15.7273 54.9118 15.8004C55.7667 15.7472 56.1493 15.2459 56.1825 14.2266V11.0161C56.2025 9.05391 56.6083 7.25441 59.2329 7.34737C59.785 7.36729 60.3339 7.52002 60.783 7.84539C62.7023 9.24315 61.8108 12.4072 62.0104 14.552C62.1036 16.3814 64.8212 16.0494 64.5951 14.2798C64.5618 12.1781 64.8745 9.93042 64.0662 7.94831H64.0695Z" fill="#191919"/>
<circle cx="30.0765" cy="2.63388" r="2.0101" fill="#3182F7"/>
</svg>
