<svg width="75" height="14" viewBox="0 0 75 14" fill="none" xmlns="http://www.w3.org/2000/svg">
<path d="M11.2834 0.655273V8.03809H9.54703V5.09863H7.60563V3.69043H9.54703V0.655273H11.2834ZM7.03141 8.31152C9.68375 8.3252 11.3107 9.2002 11.3244 10.7178C11.3107 12.2217 9.68375 13.1104 7.03141 13.1104C4.37906 13.1104 2.75211 12.2217 2.75211 10.7178C2.75211 9.2002 4.37906 8.3252 7.03141 8.31152ZM7.03141 9.65137C5.37711 9.65137 4.48844 9.99316 4.48844 10.7178C4.48844 11.4287 5.37711 11.7842 7.03141 11.7842C8.6857 11.7842 9.58805 11.4287 9.58805 10.7178C9.58805 9.99316 8.6857 9.65137 7.03141 9.65137ZM7.97477 1.40723V2.80176H5.50016C5.54117 4.25098 6.41617 5.71387 8.35758 6.35645L7.49625 7.72363C6.12223 7.2793 5.17887 6.37695 4.63883 5.24902C4.08512 6.52051 3.09391 7.5459 1.61734 8.05176L0.715 6.6709C2.75895 5.9873 3.67496 4.36035 3.72281 2.80176H1.22086V1.40723H7.97477ZM19.2202 1.62598C19.2202 3.08887 20.7104 4.71582 23.5678 5.07129L22.8842 6.47949C20.7104 6.16504 19.1176 5.16016 18.3041 3.81348C17.4838 5.16016 15.9047 6.16504 13.7514 6.47949L13.0541 5.07129C15.8842 4.71582 17.3881 3.08887 17.3881 1.62598V1.02441H19.2202V1.62598ZM23.9643 7.42285V8.84473H19.1245V13.0967H17.4018V8.84473H12.6166V7.42285H23.9643ZM34.8952 0.655273V13.0967H33.1316V0.655273H34.8952ZM31.1628 1.9541C31.1628 5.72754 29.8366 8.8584 25.3933 10.9639L24.4773 9.56934C27.6902 8.05176 29.1052 6.08301 29.3855 3.32129H25.1472V1.9541H31.1628ZM49.6888 0.668945V9.74707H47.9524V5.29004H45.9153V3.88184H47.9524V0.668945H49.6888ZM49.9895 11.4834V12.8779H41.4309V8.9541H43.1809V11.4834H49.9895ZM43.9055 3.10254C43.9055 4.53809 44.7805 6.08301 46.763 6.72559L45.9016 8.10645C44.5208 7.66211 43.5774 6.75293 43.0305 5.61816C42.4837 6.87598 41.4925 7.87402 40.0227 8.36621L39.1341 6.94434C41.1848 6.30176 42.1145 4.6748 42.1282 3.08887V2.89746H39.6263V1.50293H46.3802V2.89746H43.9055V3.10254ZM62.3697 6.54785V7.94238H51.022V6.54785H53.5787V5.05762C52.6695 4.6543 52.1568 4.03906 52.1568 3.23926C52.1568 1.73535 53.9205 0.833008 56.6959 0.833008C59.4439 0.833008 61.2076 1.73535 61.2212 3.23926C61.2144 4.0459 60.6812 4.6748 59.7584 5.07129V6.54785H62.3697ZM56.6822 8.59863C59.3755 8.59863 61.0025 9.3916 61.0162 10.8271C61.0025 12.29 59.3755 13.083 56.6822 13.083C53.9478 13.083 52.3209 12.29 52.3209 10.8271C52.3209 9.3916 53.9478 8.59863 56.6822 8.59863ZM56.6822 9.91113C54.9595 9.91113 54.0845 10.2119 54.0982 10.8271C54.0845 11.4697 54.9595 11.7842 56.6822 11.7842C58.3638 11.7842 59.2525 11.4697 59.2662 10.8271C59.2525 10.2119 58.3638 9.91113 56.6822 9.91113ZM56.6959 2.17285C54.9322 2.17285 53.9615 2.54199 53.9752 3.23926C53.9615 3.92285 54.9322 4.26465 56.6959 4.26465C58.4322 4.26465 59.4166 3.92285 59.4166 3.23926C59.4166 2.54199 58.4322 2.17285 56.6959 2.17285ZM55.3423 6.54785H58.022V5.50879C57.6119 5.55664 57.1675 5.57715 56.6959 5.57715C56.2105 5.57715 55.7593 5.55664 55.3423 5.49512V6.54785ZM69.8143 1.55762V2.33691C69.8143 3.19824 69.8143 4.44238 69.5272 5.9873L67.8182 5.82324C68.037 4.62695 68.0916 3.72461 68.1053 2.97949H63.4159V1.55762H69.8143ZM66.7245 4.42871V6.80762C67.9618 6.75977 69.2332 6.66406 70.4022 6.49316L70.4979 7.75098C67.9139 8.22949 64.9881 8.27051 62.828 8.28418L62.6776 6.88965C63.3748 6.88965 64.161 6.88965 64.9881 6.8623V4.42871H66.7245ZM72.8631 0.655273V4.44238H74.367V5.90527H72.8631V9.96582H71.0721V0.655273H72.8631ZM73.2459 11.4834V12.8779H64.5096V9.13184H66.2596V11.4834H73.2459Z" fill="url(#paint0_linear_6474_2485)"/>
<defs>
<linearGradient id="paint0_linear_6474_2485" x1="1.42601" y1="11.8389" x2="86.4424" y2="-3.16113" gradientUnits="userSpaceOnUse">
<stop stop-color="#7CBCFA"/>
<stop offset="1" stop-color="#7B54FD"/>
</linearGradient>
</defs>
</svg>
