<svg width="24" height="25" viewBox="0 0 24 25" fill="none" xmlns="http://www.w3.org/2000/svg">
<path d="M17.2929 5.45793C17.6834 5.06741 18.3164 5.06741 18.707 5.45793C19.0975 5.84846 19.0975 6.48147 18.707 6.87199L13.414 12.165L18.707 17.4579L18.7753 17.5341C19.0957 17.9269 19.0731 18.5059 18.707 18.872C18.3408 19.2381 17.7618 19.2607 17.3691 18.9404L17.2929 18.872L11.9999 13.579L6.70696 18.872C6.31643 19.2625 5.68342 19.2625 5.29289 18.872C4.90237 18.4815 4.90237 17.8485 5.29289 17.4579L10.5859 12.165L5.29289 6.87199C4.90237 6.48147 4.90237 5.84846 5.29289 5.45793C5.68342 5.06741 6.31643 5.06741 6.70696 5.45793L11.9999 10.7509L17.2929 5.45793Z" fill="#4E5968"/>
</svg>
