<svg width="31" height="30" viewBox="0 0 31 30" fill="none" xmlns="http://www.w3.org/2000/svg">
<path d="M13.9271 1.69004C14.5274 0.473824 16.2617 0.473826 16.8619 1.69005L20.3039 8.66419C20.5422 9.14716 21.003 9.4819 21.5359 9.55935L29.2324 10.6777C30.5746 10.8727 31.1105 12.5221 30.1393 13.4688L24.5701 18.8975C24.1844 19.2734 24.0084 19.815 24.0995 20.3459L25.4142 28.0112C25.6434 29.3479 24.2404 30.3673 23.0399 29.7362L16.156 26.1171C15.6793 25.8665 15.1098 25.8665 14.6331 26.1171L7.74917 29.7362C6.54869 30.3673 5.14562 29.3479 5.37489 28.0112L6.6896 20.3459C6.78064 19.815 6.60465 19.2734 6.21898 18.8975L0.649794 13.4688C-0.321416 12.5221 0.214511 10.8727 1.55669 10.6777L9.25312 9.55935C9.7861 9.4819 10.2468 9.14716 10.4852 8.66419L13.9271 1.69004Z" fill="#D2D7DC"/>
</svg>
