<svg width="25" height="25" viewBox="0 0 25 25" fill="none" xmlns="http://www.w3.org/2000/svg">
<path d="M15.3809 3.7168C15.7273 3.71703 16.063 3.83716 16.3309 4.0568L16.4409 4.1568L18.0029 5.7168H20.5879C21.0925 5.71664 21.5785 5.9072 21.9484 6.25029C22.3184 6.59338 22.545 7.06364 22.5829 7.5668L22.5879 7.7168V19.7168C22.588 20.2214 22.3975 20.7074 22.0544 21.0773C21.7113 21.4473 21.241 21.674 20.7379 21.7118L20.5879 21.7168H4.58789C4.08331 21.717 3.59732 21.5264 3.22734 21.1833C2.85736 20.8402 2.63073 20.37 2.59289 19.8668L2.58789 19.7168V7.7168C2.58773 7.21222 2.7783 6.72623 3.12139 6.35625C3.46448 5.98627 3.93474 5.75964 4.43789 5.7218L4.58789 5.7168H7.17389L8.73389 4.1568C8.97899 3.91122 9.30164 3.75819 9.64689 3.7238L9.79489 3.7168H15.3809ZM12.5879 8.2168C11.2618 8.2168 9.99004 8.74358 9.05236 9.68126C8.11467 10.6189 7.58789 11.8907 7.58789 13.2168C7.58789 14.5429 8.11467 15.8146 9.05236 16.7523C9.99004 17.69 11.2618 18.2168 12.5879 18.2168C13.914 18.2168 15.1857 17.69 16.1234 16.7523C17.0611 15.8146 17.5879 14.5429 17.5879 13.2168C17.5879 11.8907 17.0611 10.6189 16.1234 9.68126C15.1857 8.74358 13.914 8.2168 12.5879 8.2168ZM12.5879 10.2168C12.9819 10.2168 13.372 10.2944 13.7359 10.4452C14.0999 10.5959 14.4306 10.8169 14.7092 11.0955C14.9878 11.3741 15.2088 11.7048 15.3595 12.0687C15.5103 12.4327 15.5879 12.8228 15.5879 13.2168C15.5879 13.6108 15.5103 14.0009 15.3595 14.3648C15.2088 14.7288 14.9878 15.0595 14.7092 15.3381C14.4306 15.6167 14.0999 15.8377 13.7359 15.9884C13.372 16.1392 12.9819 16.2168 12.5879 16.2168C11.7922 16.2168 11.0292 15.9007 10.4666 15.3381C9.90396 14.7755 9.58789 14.0124 9.58789 13.2168C9.58789 12.4211 9.90396 11.6581 10.4666 11.0955C11.0292 10.5329 11.7922 10.2168 12.5879 10.2168Z" fill="#8B95A1"/>
</svg>
