<svg width="14" height="14" viewBox="0 0 14 14" fill="none" xmlns="http://www.w3.org/2000/svg">
<path d="M6.58594 1.10567C6.84136 0.588127 7.57935 0.588126 7.83477 1.10567L9.29943 4.07339C9.40086 4.2789 9.59692 4.42135 9.82372 4.45431L13.0988 4.9302C13.6699 5.01319 13.898 5.71507 13.4847 6.11792L11.1148 8.42797C10.9507 8.58794 10.8758 8.81843 10.9146 9.04431L11.474 12.3062C11.5716 12.875 10.9745 13.3088 10.4637 13.0402L7.53438 11.5002C7.33153 11.3935 7.08918 11.3935 6.88633 11.5002L3.95701 13.0402C3.44617 13.3088 2.84912 12.875 2.94668 12.3062L3.50613 9.04431C3.54487 8.81843 3.46998 8.58794 3.30587 8.42797L0.936 6.11792C0.522719 5.71507 0.750772 5.0132 1.32191 4.9302L4.59699 4.45431C4.82379 4.42135 5.01985 4.2789 5.12128 4.07339L6.58594 1.10567Z" fill="#FFD050"/>
</svg>
