<svg width="14" height="13" viewBox="0 0 14 13" fill="none" xmlns="http://www.w3.org/2000/svg">
<path d="M5.99316 0.605545C6.24858 0.0880048 6.98658 0.088004 7.242 0.605544L8.70666 3.57327C8.80809 3.77878 9.00415 3.92123 9.23095 3.95419L12.506 4.43008C13.0772 4.51307 13.3052 5.21495 12.8919 5.6178L10.5221 7.92785C10.358 8.08782 10.2831 8.3183 10.3218 8.54419L10.8813 11.806C10.9788 12.3749 10.3818 12.8086 9.87093 12.5401L6.94161 11C6.73875 10.8934 6.49641 10.8934 6.29355 11L3.36424 12.5401C2.85339 12.8086 2.25634 12.3749 2.3539 11.806L2.91335 8.54419C2.9521 8.3183 2.87721 8.08782 2.71309 7.92785L0.343227 5.6178C-0.070054 5.21495 0.157999 4.51307 0.729139 4.43008L4.00421 3.95419C4.23101 3.92123 4.42708 3.77878 4.5285 3.57327L5.99316 0.605545Z" fill="white" fill-opacity="0.2"/>
</svg>
