<svg width="14" height="14" viewBox="0 0 14 14" fill="none" xmlns="http://www.w3.org/2000/svg">
<path d="M6.2666 1.10567C6.52202 0.588127 7.26002 0.588126 7.51544 1.10567L8.9801 4.07339C9.08153 4.2789 9.27759 4.42135 9.50439 4.45431L12.7795 4.9302C13.3506 5.01319 13.5787 5.71507 13.1654 6.11792L10.7955 8.42797C10.6314 8.58794 10.5565 8.81843 10.5952 9.04431L11.1547 12.3062C11.2523 12.875 10.6552 13.3088 10.1444 13.0402L7.21505 11.5002C7.01219 11.3935 6.76985 11.3935 6.56699 11.5002L3.63767 13.0402C3.12683 13.3088 2.52978 12.875 2.62734 12.3062L3.18679 9.04431C3.22553 8.81843 3.15064 8.58794 2.98653 8.42797L0.616664 6.11792C0.203384 5.71507 0.431436 5.0132 1.00258 4.9302L4.27765 4.45431C4.50445 4.42135 4.70051 4.2789 4.80194 4.07339L6.2666 1.10567Z" fill="#D2D7DC"/>
</svg>
