<svg width="19" height="19" viewBox="0 0 19 19" fill="none" xmlns="http://www.w3.org/2000/svg">
<path d="M8.59838 0.816986C8.96519 0.0737407 10.025 0.0737401 10.3919 0.816986L12.4953 5.07896C12.6409 5.37411 12.9225 5.57868 13.2482 5.62601L17.9516 6.30945C18.7718 6.42863 19.0993 7.4366 18.5058 8.01514L15.1024 11.3326C14.8667 11.5624 14.7592 11.8934 14.8148 12.2178L15.6182 16.9021C15.7583 17.719 14.9009 18.342 14.1673 17.9563L9.96046 15.7446C9.66913 15.5915 9.3211 15.5915 9.02978 15.7446L4.82295 17.9563C4.08932 18.342 3.23189 17.719 3.372 16.9021L4.17543 12.2178C4.23107 11.8934 4.12352 11.5624 3.88784 11.3326L0.484446 8.01514C-0.109071 7.4366 0.218438 6.42863 1.03866 6.30945L5.74203 5.62601C6.06774 5.57868 6.34931 5.37411 6.49497 5.07896L8.59838 0.816986Z" fill="#D2D7DC"/>
</svg>
