<svg width="19" height="19" viewBox="0 0 19 19" fill="none" xmlns="http://www.w3.org/2000/svg">
<path d="M8.70971 0.816986C9.07652 0.0737407 10.1364 0.0737401 10.5032 0.816986L12.6066 5.07896C12.7523 5.37411 13.0338 5.57868 13.3595 5.62601L18.0629 6.30945C18.8831 6.42863 19.2106 7.4366 18.6171 8.01514L15.2137 11.3326C14.978 11.5624 14.8705 11.8934 14.9261 12.2178L15.7296 16.9021C15.8697 17.719 15.0122 18.342 14.2786 17.9563L10.0718 15.7446C9.78046 15.5915 9.43243 15.5915 9.1411 15.7446L4.93428 17.9563C4.20065 18.342 3.34322 17.719 3.48333 16.9021L4.28676 12.2178C4.3424 11.8934 4.23485 11.5624 3.99917 11.3326L0.595774 8.01514C0.00225699 7.4366 0.329766 6.42863 1.14999 6.30945L5.85336 5.62601C6.17907 5.57868 6.46064 5.37411 6.6063 5.07896L8.70971 0.816986Z" fill="#FFD050"/>
</svg>
