<?xml version="1.0" encoding="UTF-8"?>
<svg id="_레이어_1" data-name="레이어 1" xmlns="http://www.w3.org/2000/svg" viewBox="0 0 80.08 18.67">
  <defs>
    <style>
      .cls-1 {
        fill: none;
      }

      .cls-1, .cls-2, .cls-3 {
        stroke-width: 0px;
      }

      .cls-2 {
        fill: #3d76ba;
      }

      .cls-3 {
        fill: #181818;
      }
    </style>
  </defs>
  <rect class="cls-1" x=".08" width="80" height="18.67"/>
  <g>
    <path class="cls-3" d="M28.08,11.33c-.14-3.09,1.47-6.34,4.95-6.32,1.5-.04,1.52,2.14.05,2.19-3.24.04-2.85,3.61-2.82,5.92.11,1.63-2.12,1.6-2.17.18-.01-.6-.02-1.19-.02-1.79v-.17Z"/>
    <path class="cls-3" d="M11.21,8.01c-.19-2.5-3.16-3.82-5.22-2.38-.13.09-.24.14-.35.15-.11-.01-.22-.06-.35-.15-2.06-1.44-5.03-.12-5.22,2.38-.13,1.77-.06,3.55-.05,5.33,0,.59.46,1,1,1.02.13,0,.24-.03.34-.05.47-.1.8-.53.8-1.01v-2.51c0-.86-.04-1.21-.01-2.08.05-1.76,2.25-1.83,2.42-.24,0,.02,0,.04,0,.06v4.58c0,.59.48,1.07,1.07,1.07h.01c.59,0,1.07-.48,1.07-1.07v-4.58s0-.04,0-.06c.17-1.59,2.37-1.52,2.42.24.02.87-.02,1.22-.01,2.08v2.51c0,.48.33.91.8,1.01.1.02.21.04.34.05.54-.02.99-.43,1-1.02.01-1.78.08-3.56-.05-5.33h0Z"/>
    <path class="cls-3" d="M20.09,6.31c.04,1.14.02,2.29,0,3.43-.1,2.52-3.04,2.98-4.45,1.45,0,0,0,0,0,0,0,0,0,0-.01-.01-.76-.83-.69-3.01-.69-3.26,0-.06,0-.11,0-.17v-1.33c-.09-.85-.35-1.41-1.11-1.41-.68,0-1.06.49-1.07,1.26.04,2.43-.24,5.33,1.7,6.98,1.51,1.29,3.92,1.49,5.65.18l.02,2.83c.04.67.48,1.08,1.07,1.11.7,0,1.11-.44,1.11-1.19,0-3.29,0-6.59,0-9.88.03-1.65-2.19-1.7-2.21.03h0Z"/>
    <path class="cls-3" d="M43.23,7.66c-.93-1.96-3.2-3-5.21-2.55-6.1,1.36-4.21,10.23,1.89,9.15.93-.18,2.56-.57,1.9-1.8-.71-1.33-3.42,1.57-4.99-1.53l-.21-.41,5.83.08c.13,0,.26-.01.39-.02,1.52-.19.72-2.02.39-2.92h0ZM36.67,8.8c.18-2.11,4.3-2.42,4.79,0h-4.79Z"/>
    <path class="cls-3" d="M63.54,11.86c-.58-.7-1.47-.12-1.78.11-1.69,1.01-3.88-.13-3.89-1.98,0-.13,0-.25,0-.38v-2.57h3.21c.59,0,1.08-.48,1.08-1.08s-.48-1.08-1.08-1.08h-3.21v-1.39c-.22-1.62-2.06-1.7-2.24-.02v3.25c-.14,3.71-.04,7.11,4,7.73,1.95.28,5.07-.82,3.92-2.6h0Z"/>
    <path class="cls-3" d="M73.75,10.26c.12-4.93-6.22-7.49-8.95-2.61-1.26,2.35-.21,5.39,2.24,6.44,1.39.59,2.76.55,4.11-.16.06-.03.11-.04.16-.03.2.43.63.73,1.13.73h.06c.69,0,1.25-.56,1.25-1.25v-3.12h0,0ZM68.93,12.37c-3.29-.08-3.31-5.07.01-5.12,3.32-.04,3.28,5.14-.01,5.12Z"/>
    <path class="cls-3" d="M77.91,11.05c-.04-1.3,0-2.6,0-3.9v-.05h0c0-.08,0-.19,0-.34v-3.28c0-.33-.04-.65-.15-.96-.14-.41-.37-.72-.71-.83-.55-.17-.98.18-1.19.64-.08.17-.11.35-.11.53h0v8.12c0,.25.04.65.1.89.33,1.4,1.32,2.26,2.65,2.43.3.06.75.07.92.03.21-.05.5-.38.59-.8.11-1.79-2.09-1.03-2.09-2.49h0Z"/>
    <path class="cls-3" d="M53.54,7.78c-.06-.14-.13-.27-.21-.4-2.97-4.69-8.74-1.99-8.65,3.21h0v2.58h0c.03.7.26,1.13,1.2,1.19.71-.04,1.03-.47,1.06-1.32v-2.69c.02-1.65.36-3.16,2.55-3.08.46.02.92.14,1.3.42,1.6,1.17.86,3.83,1.03,5.63.08,1.53,2.35,1.26,2.16-.23-.03-1.76.23-3.65-.44-5.31h0Z"/>
    <ellipse class="cls-2" cx="25.13" cy="3.32" rx="1.68" ry="1.69"/>
  </g>
</svg>