<svg width="12" height="12" viewBox="0 0 12 12" fill="none" xmlns="http://www.w3.org/2000/svg">
<path d="M5.99058 7.03931L1.25224 11.7779C1.09866 11.9313 0.933339 12.0053 0.756284 11.9997C0.579414 11.994 0.410584 11.9108 0.249793 11.7502C0.0891871 11.5894 0.00888405 11.4177 0.00888405 11.2351C0.00888405 11.0525 0.0891871 10.8808 0.249793 10.72L4.96069 6.00942L0.222071 1.27108C0.0686724 1.1175 -0.00525439 0.947558 0.00029012 0.761262C0.00601945 0.575151 0.0891871 0.4017 0.249793 0.240909C0.410584 0.0803031 0.582279 0 0.764878 0C0.947477 0 1.11917 0.0803031 1.27996 0.240909L5.99058 4.97953L10.7289 0.240909C10.8825 0.087511 11.0524 0.0089637 11.2387 0.00526735C11.4248 0.00175583 11.5983 0.0803031 11.7591 0.240909C11.9197 0.4017 12 0.573395 12 0.755995C12 0.938594 11.9197 1.11029 11.7591 1.27108L7.02047 6.00942L11.7591 10.7478C11.9125 10.9013 11.991 11.0667 11.9947 11.2437C11.9982 11.4206 11.9197 11.5894 11.7591 11.7502C11.5983 11.9108 11.4266 11.9911 11.244 11.9911C11.0614 11.9911 10.8897 11.9108 10.7289 11.7502L5.99058 7.03931Z" fill="#7B7E85"/>
</svg>
