<svg width="60" height="60" viewBox="0 0 60 60" fill="none" xmlns="http://www.w3.org/2000/svg">
<g id="Frame 5629">
<g id="Group">
<path id="Vector" d="M27.7051 19.0049H39.7051" stroke="#191919" stroke-width="2.25" stroke-linecap="round" stroke-linejoin="round"/>
<path id="Vector_2" d="M15.7051 25.0049H39.7051" stroke="#191919" stroke-width="2.25" stroke-linecap="round" stroke-linejoin="round"/>
<path id="Vector_3" d="M15.7051 31.0049H33.7051" stroke="#191919" stroke-width="2.25" stroke-linecap="round" stroke-linejoin="round"/>
<path id="Vector_4" d="M16.2441 16.0349L18.6891 19.2898L23.1591 13.5898" stroke="#191919" stroke-width="2.25" stroke-linecap="round" stroke-linejoin="round"/>
<path id="Vector_5" d="M37.9505 52.9051L50.0105 37.4701C51.0605 36.1201 50.8655 34.2001 49.5605 33.1801L48.6755 32.4901C47.3705 31.4701 45.4505 31.7401 44.4005 33.0901L32.3105 48.5551L32.6105 54.0151L37.9355 52.9951V52.9201L37.9505 52.9051Z" stroke="#3182F7" stroke-width="2.25" stroke-linecap="round" stroke-linejoin="round"/>
<path id="Vector_6" d="M42.4492 35.5801L48.0592 39.9751" stroke="#3182F7" stroke-width="2.25" stroke-linecap="round" stroke-linejoin="round"/>
<path id="Vector_7" d="M25.545 51.69H11.085C9.735 51.69 8.625 50.595 8.625 49.23V8.45998C8.625 7.10998 9.72 6 11.085 6H44.895C46.245 6 47.355 7.09498 47.355 8.45998V26.055" stroke="#191919" stroke-width="2.25" stroke-linecap="round" stroke-linejoin="round"/>
</g>
</g>
</svg>
