<svg width="60" height="60" viewBox="0 0 60 60" fill="none" xmlns="http://www.w3.org/2000/svg">
<g id="Frame 5638">
<path id="Vector" d="M30.0606 45.1498H8.77563C7.24563 45.1498 6.01562 43.9048 6.01562 42.3898V15.2248C6.01562 13.6948 7.26063 12.4648 8.77563 12.4648H48.3756C49.9056 12.4648 51.1356 13.7098 51.1356 15.2248V23.2198" stroke="#191919" stroke-width="2.25" stroke-linecap="round" stroke-linejoin="round"/>
<path id="Vector_2" d="M8.11523 19.3799H50.2802" stroke="#191919" stroke-width="3" stroke-linecap="square" stroke-linejoin="round"/>
<path id="Vector_3" d="M11.5352 38.73H16.2302" stroke="#191919" stroke-width="2.25" stroke-linecap="round" stroke-linejoin="round"/>
<path id="Vector_4" d="M43.4708 47.55C49.2946 47.55 54.0158 42.8288 54.0158 37.005C54.0158 31.1811 49.2946 26.46 43.4708 26.46C37.6469 26.46 32.9258 31.1811 32.9258 37.005C32.9258 42.8288 37.6469 47.55 43.4708 47.55Z" stroke="#3182F7" stroke-width="2.25" stroke-linecap="round" stroke-linejoin="round"/>
<path id="Vector_5" d="M39.1953 36.4951L42.2103 40.5151L47.7303 33.4951" stroke="#3182F7" stroke-width="2.25" stroke-linecap="round" stroke-linejoin="round"/>
</g>
</svg>
