<svg width="60" height="60" viewBox="0 0 60 60" fill="none" xmlns="http://www.w3.org/2000/svg">
<g id="Frame 5951">
<path id="Vector" d="M39.0606 47.1601L52.5306 33.6901C53.7456 32.4751 53.7906 30.525 52.6206 29.355L51.9756 28.7101C50.8056 27.5401 48.8706 27.5701 47.6406 28.8001L34.1406 42.3001L33.7656 47.6101L39.0306 47.2351L39.0606 47.1751V47.1601Z" stroke="#3182F7" stroke-width="2.25" stroke-linecap="round" stroke-linejoin="round"/>
<path id="Vector_2" d="M45.4043 31.02L50.3093 35.91" stroke="#3182F7" stroke-width="2.25" stroke-linecap="round" stroke-linejoin="round"/>
<path id="Vector_3" d="M29.13 43.8303H8.65501C7.18501 43.8303 6 42.6453 6 41.1753V15.0603C6 13.5903 7.18501 12.4053 8.65501 12.4053H46.74C48.21 12.4053 49.395 13.5903 49.395 15.0603V22.7553" stroke="#191919" stroke-width="2.25" stroke-linecap="round" stroke-linejoin="round"/>
<path id="Vector_4" d="M8.03906 19.0352H48.5691" stroke="#191919" stroke-width="3" stroke-linecap="square" stroke-linejoin="round"/>
<path id="Vector_5" d="M11.3242 37.6499H15.8392" stroke="#191919" stroke-width="2.25" stroke-linecap="round" stroke-linejoin="round"/>
</g>
</svg>
