<svg width="46" height="46" viewBox="0 0 46 46" fill="none" xmlns="http://www.w3.org/2000/svg">
<rect x="0.102051" y="0.466797" width="45" height="45" rx="10" fill="url(#paint0_linear_5824_11735)"/>
<path fill-rule="evenodd" clip-rule="evenodd" d="M22.602 12.4109C16.7722 12.4109 12.0465 17.1366 12.0465 22.9664C12.0465 24.9614 12.6007 26.8298 13.5644 28.4216L12.6228 31.622C12.5688 31.8058 12.5652 32.0007 12.6125 32.1863C12.6598 32.3719 12.7563 32.5413 12.8917 32.6768C13.0272 32.8122 13.1966 32.9086 13.3822 32.956C13.5678 33.0033 13.7627 32.9997 13.9465 32.9457L17.1469 32.0041C18.7922 32.9996 20.6791 33.5246 22.602 33.522C28.4319 33.522 33.1576 28.7963 33.1576 22.9664C33.1576 17.1366 28.4319 12.4109 22.602 12.4109ZM20.2144 25.3552C22.3498 27.4895 24.388 27.7713 25.1079 27.7977C26.2025 27.8378 27.2687 27.0018 27.6835 26.0318C27.7359 25.9111 27.7549 25.7786 27.7385 25.648C27.7222 25.5175 27.6711 25.3938 27.5906 25.2897C27.0122 24.5508 26.23 24.0199 25.4658 23.4921C25.3062 23.3818 25.1101 23.3375 24.9186 23.3686C24.7272 23.3997 24.5552 23.5037 24.4387 23.6589L23.8054 24.6247C23.7721 24.6766 23.7202 24.7139 23.6603 24.7288C23.6005 24.7437 23.5372 24.7352 23.4834 24.7049C23.0538 24.459 22.4279 24.041 21.9782 23.5913C21.5285 23.1417 21.1359 22.5442 20.9153 22.1421C20.8879 22.091 20.88 22.0317 20.893 21.9752C20.906 21.9187 20.939 21.8689 20.986 21.8349L21.9613 21.1108C22.1005 20.9898 22.1903 20.8218 22.2137 20.6388C22.2371 20.4558 22.1923 20.2707 22.088 20.1186C21.6151 19.4261 21.0641 18.5458 20.265 17.9621C20.1619 17.8873 20.0411 17.8407 19.9145 17.8268C19.7879 17.813 19.6599 17.8323 19.543 17.8829C18.5719 18.2988 17.7317 19.3649 17.7718 20.4616C17.7982 21.1815 18.08 23.2198 20.2144 25.3552Z" fill="white"/>
<defs>
<linearGradient id="paint0_linear_5824_11735" x1="43.0361" y1="41.4858" x2="5.35811" y2="0.466798" gradientUnits="userSpaceOnUse">
<stop stop-color="#0068FF"/>
<stop offset="1" stop-color="#5299FF"/>
</linearGradient>
</defs>
</svg>
