<svg width="45" height="46" viewBox="0 0 45 46" fill="none" xmlns="http://www.w3.org/2000/svg">
<rect y="0.466797" width="45" height="45" rx="10" fill="url(#paint0_linear_5824_11683)"/>
<path fill-rule="evenodd" clip-rule="evenodd" d="M22.5 12.4108C16.6702 12.4108 11.9445 17.1365 11.9445 22.9663C11.9445 24.9613 12.4986 26.8297 13.4623 28.4214L12.5208 31.6219C12.4667 31.8056 12.4632 32.0006 12.5105 32.1862C12.5578 32.3718 12.6543 32.5412 12.7897 32.6766C12.9251 32.8121 13.0946 32.9085 13.2802 32.9558C13.4658 33.0032 13.6607 32.9996 13.8445 32.9455L17.0449 32.004C18.6902 32.9995 20.577 33.5245 22.5 33.5219C28.3298 33.5219 33.0556 28.7962 33.0556 22.9663C33.0556 17.1365 28.3298 12.4108 22.5 12.4108ZM20.1123 25.355C22.2477 27.4894 24.286 27.7712 25.0059 27.7976C26.1005 27.8377 27.1666 27.0017 27.5815 26.0317C27.6338 25.911 27.6528 25.7785 27.6365 25.6479C27.6202 25.5174 27.5691 25.3936 27.4886 25.2896C26.9101 24.5507 26.128 24.0198 25.3637 23.492C25.2042 23.3817 25.0081 23.3374 24.8166 23.3685C24.6251 23.3996 24.4531 23.5036 24.3367 23.6588L23.7033 24.6246C23.6701 24.6765 23.6182 24.7138 23.5583 24.7287C23.4985 24.7436 23.4352 24.7351 23.3814 24.7048C22.9518 24.4589 22.3258 24.0409 21.8762 23.5912C21.4265 23.1415 21.0338 22.5441 20.8132 22.1419C20.7859 22.0908 20.778 22.0316 20.791 21.9751C20.804 21.9186 20.837 21.8688 20.884 21.8348L21.8593 21.1107C21.9985 20.9896 22.0883 20.8216 22.1117 20.6387C22.135 20.4557 22.0903 20.2705 21.986 20.1184C21.5131 19.426 20.9621 18.5457 20.163 17.9619C20.0599 17.8872 19.9391 17.8406 19.8125 17.8267C19.6859 17.8128 19.5579 17.8322 19.441 17.8828C18.4699 18.2987 17.6297 19.3648 17.6698 20.4615C17.6962 21.1814 17.978 23.2197 20.1123 25.355Z" fill="white"/>
<defs>
<linearGradient id="paint0_linear_5824_11683" x1="42.9341" y1="41.4858" x2="5.25606" y2="0.466798" gradientUnits="userSpaceOnUse">
<stop stop-color="#0068FF"/>
<stop offset="1" stop-color="#5299FF"/>
</linearGradient>
</defs>
</svg>
