<svg width="28" height="28" viewBox="0 0 28 28" fill="none" xmlns="http://www.w3.org/2000/svg">
<path d="M18.7173 3.73926C19.0187 3.73926 19.3077 3.85898 19.5208 4.07209C19.7339 4.2852 19.8537 4.57424 19.8537 4.87562V6.01199H22.1264C22.6998 6.0118 23.252 6.22836 23.6725 6.61823C24.0929 7.00811 24.3504 7.54249 24.3934 8.11426L24.3991 8.28471V21.9211C24.3993 22.4945 24.1828 23.0467 23.7929 23.4672C23.403 23.8876 22.8686 24.1451 22.2969 24.1881L22.1264 24.1938H6.21731C5.64393 24.194 5.09166 23.9774 4.67123 23.5876C4.2508 23.1977 3.99327 22.6633 3.95026 22.0915L3.94458 21.9211V8.28471C3.9444 7.71133 4.16095 7.15907 4.55083 6.73864C4.9407 6.3182 5.47509 6.06067 6.04685 6.01767L6.21731 6.01199H8.49003V4.87562C8.49003 4.57424 8.60976 4.2852 8.82287 4.07209C9.03598 3.85898 9.32502 3.73926 9.6264 3.73926C9.92778 3.73926 10.2168 3.85898 10.4299 4.07209C10.643 4.2852 10.7628 4.57424 10.7628 4.87562V6.01199H17.5809V4.87562C17.5809 4.57424 17.7007 4.2852 17.9138 4.07209C18.1269 3.85898 18.4159 3.73926 18.7173 3.73926ZM17.3809 10.9881L12.5605 15.8086L10.9525 14.2018C10.7382 13.9948 10.4512 13.8802 10.1532 13.8828C9.85526 13.8854 9.57025 14.0049 9.35956 14.2156C9.14887 14.4263 9.02936 14.7113 9.02677 15.0093C9.02418 15.3072 9.13872 15.5943 9.34572 15.8086L11.748 18.212C11.8546 18.3187 11.9811 18.4033 12.1205 18.461C12.2598 18.5188 12.4091 18.5485 12.5599 18.5485C12.7107 18.5485 12.8601 18.5188 12.9994 18.461C13.1387 18.4033 13.2653 18.3187 13.3719 18.212L18.9878 12.5949C19.0963 12.4901 19.1829 12.3647 19.2424 12.2261C19.302 12.0874 19.3333 11.9383 19.3346 11.7874C19.3359 11.6366 19.3072 11.4869 19.2501 11.3473C19.1929 11.2076 19.1085 11.0807 19.0018 10.974C18.8952 10.8673 18.7683 10.783 18.6286 10.7258C18.489 10.6687 18.3393 10.6399 18.1884 10.6412C18.0376 10.6426 17.8884 10.6739 17.7498 10.7335C17.6112 10.793 17.4858 10.8796 17.3809 10.9881Z" fill="#B0B8C1"/>
</svg>
