<svg width="30" height="30" viewBox="0 0 30 30" fill="none" xmlns="http://www.w3.org/2000/svg">
<g id="Frame 5640">
<path id="Vector" d="M9.56181 19.725C9.56181 20.7975 8.46681 21.525 7.47681 21.1125C5.52681 20.295 4.1543 18.3675 4.1543 16.1175C4.1543 13.8675 5.52681 11.94 7.47681 11.1225C8.46681 10.71 9.56181 11.4375 9.56181 12.51V19.725Z" stroke="#191919" stroke-width="1.5" stroke-linecap="round" stroke-linejoin="round"/>
<path id="Vector_2" d="M20.4297 12.51C20.4297 11.4375 21.5247 10.71 22.5147 11.1225C24.4647 11.94 25.8372 13.8675 25.8372 16.1175C25.8372 18.3675 24.4647 20.295 22.5147 21.1125C21.5247 21.525 20.4297 20.7975 20.4297 19.725V12.51Z" stroke="#191919" stroke-width="1.5" stroke-linecap="round" stroke-linejoin="round"/>
<path id="Vector_3" d="M7.08008 10.9127C7.08008 10.6727 7.08758 10.4402 7.11008 10.2002C7.47008 6.15769 10.8601 2.99268 14.9926 2.99268C19.1251 2.99268 22.5151 6.15769 22.8751 10.2002C22.8976 10.4327 22.9051 10.6727 22.9051 10.9127" stroke="#191919" stroke-width="1.5" stroke-miterlimit="10" stroke-linecap="round"/>
<path id="Vector_4" d="M22.53 21.5251C21.5025 24.7051 18.5175 26.2501 15 26.2501" stroke="#191919" stroke-width="1.5" stroke-miterlimit="10" stroke-linecap="round"/>
</g>
</svg>
