<svg width="20" height="20" viewBox="0 0 20 20" fill="none" xmlns="http://www.w3.org/2000/svg">
<path d="M5.92841 2.90201C6.83329 3.56147 7.53787 4.4616 8.13954 5.32293L8.48945 5.83276L8.81958 6.31964C8.98471 6.56088 9.05531 6.85445 9.01794 7.14439C8.98056 7.43434 8.83782 7.7004 8.61691 7.89189L7.07237 9.03901C6.99775 9.0929 6.94522 9.17204 6.92455 9.26173C6.90387 9.35142 6.91645 9.44556 6.95995 9.52668C7.30987 10.1624 7.93212 11.1092 8.64462 11.8217C9.35791 12.5342 10.3491 13.1976 11.0291 13.5871C11.1144 13.635 11.2147 13.6484 11.3096 13.6245C11.4044 13.6007 11.4865 13.5414 11.539 13.4589L12.5444 11.9286C12.7292 11.6831 13.0019 11.5186 13.3053 11.4696C13.6087 11.4206 13.9193 11.4909 14.172 11.6658L14.6969 12.0291C15.6778 12.71 16.7315 13.4834 17.5374 14.515C17.6652 14.6795 17.7465 14.8753 17.7729 15.0819C17.7992 15.2886 17.7695 15.4985 17.687 15.6898C17.0244 17.2359 15.3477 18.5525 13.6036 18.4883L13.3661 18.4749L13.1817 18.4591L12.9774 18.4353L12.755 18.4052L12.5135 18.3656C12.4712 18.358 12.429 18.3501 12.3868 18.3419L12.1208 18.2849C12.0743 18.2747 12.0279 18.2641 11.9815 18.2532L11.6917 18.1788L11.387 18.0917L11.0687 17.9888C9.60729 17.4932 7.75241 16.5195 5.84925 14.6163C3.94687 12.7139 2.97312 10.8591 2.47754 9.39764L2.37462 9.07939L2.28754 8.7746L2.21312 8.48485L2.15137 8.21093C2.13354 8.12514 2.11691 8.0391 2.1015 7.95285L2.06191 7.71139L2.03025 7.48893L2.00729 7.28468L1.99145 7.10022L1.97879 6.86272C1.91466 5.12422 3.24545 3.4356 4.78445 2.77614C4.96969 2.69615 5.17253 2.6657 5.37308 2.68777C5.57364 2.70984 5.765 2.78367 5.92841 2.90201ZM12.3686 5.74805L12.4605 5.75835C13.0367 5.85999 13.566 6.14147 13.9725 6.56242C14.3789 6.98338 14.6417 7.52221 14.723 8.10168C14.7521 8.30211 14.7032 8.50605 14.5864 8.67152C14.4696 8.837 14.2939 8.95144 14.0953 8.99129C13.8968 9.03115 13.6905 8.99339 13.5189 8.88578C13.3473 8.77818 13.2235 8.60891 13.173 8.4128L13.1547 8.32176C13.1229 8.09463 13.026 7.88159 12.8756 7.70837C12.7253 7.53515 12.528 7.40916 12.3077 7.34564L12.185 7.31793C11.9862 7.2827 11.8083 7.17285 11.6879 7.01085C11.5674 6.84885 11.5134 6.64694 11.5368 6.44642C11.5603 6.2459 11.6595 6.06192 11.8141 5.9321C11.9687 5.80229 12.1671 5.73645 12.3686 5.74805ZM12.375 3.34139C13.6347 3.34139 14.8429 3.84183 15.7337 4.73263C16.6245 5.62343 17.125 6.83161 17.125 8.09139C17.1247 8.29317 17.0475 8.48725 16.9089 8.63397C16.7704 8.78069 16.5811 8.86899 16.3797 8.88082C16.1783 8.89264 15.9799 8.8271 15.8252 8.69759C15.6704 8.56809 15.571 8.38438 15.5472 8.18401L15.5416 8.09139C15.5419 7.28739 15.2362 6.51341 14.6866 5.9266C14.137 5.33979 13.3847 4.98413 12.5824 4.93185L12.375 4.92472C12.165 4.92472 11.9636 4.84131 11.8152 4.69285C11.6667 4.54438 11.5833 4.34302 11.5833 4.13305C11.5833 3.92309 11.6667 3.72173 11.8152 3.57326C11.9636 3.4248 12.165 3.34139 12.375 3.34139Z" fill="#B0B8C1"/>
</svg>
