<svg width="27" height="26" viewBox="0 0 27 26" fill="none" xmlns="http://www.w3.org/2000/svg">
<path d="M13.1717 2.1709C19.134 2.1709 23.9671 7.00402 23.9671 12.9664C23.9671 18.9287 19.134 23.7618 13.1717 23.7618H4.53531C3.96268 23.7618 3.41351 23.5343 3.0086 23.1294C2.6037 22.7245 2.37622 22.1753 2.37622 21.6027V12.9664C2.37622 7.00402 7.20935 2.1709 13.1717 2.1709ZM13.1717 15.1254H9.93304C9.64672 15.1254 9.37214 15.2392 9.16968 15.4416C8.96723 15.6441 8.85349 15.9187 8.85349 16.205C8.85349 16.4913 8.96723 16.7659 9.16968 16.9683C9.37214 17.1708 9.64672 17.2845 9.93304 17.2845H13.1717C13.458 17.2845 13.7326 17.1708 13.935 16.9683C14.1375 16.7659 14.2512 16.4913 14.2512 16.205C14.2512 15.9187 14.1375 15.6441 13.935 15.4416C13.7326 15.2392 13.458 15.1254 13.1717 15.1254ZM16.4103 10.8073H9.93304C9.65788 10.8076 9.39323 10.9129 9.19315 11.1018C8.99307 11.2907 8.87267 11.5489 8.85655 11.8235C8.84042 12.0982 8.92979 12.3687 9.10639 12.5797C9.283 12.7907 9.5335 12.9263 9.80673 12.9588L9.93304 12.9664H16.4103C16.6855 12.966 16.9501 12.8607 17.1502 12.6718C17.3503 12.4829 17.4707 12.2248 17.4868 11.9501C17.5029 11.6754 17.4136 11.4049 17.237 11.1939C17.0604 10.9829 16.8098 10.8473 16.5366 10.8148L16.4103 10.8073Z" fill="#B0B8C1"/>
</svg>
