<svg width="30" height="30" viewBox="0 0 30 30" fill="none" xmlns="http://www.w3.org/2000/svg">
<g id="Frame 5631">
<path id="Vector" d="M18.9528 26.4749L24.8928 18.8774C25.4103 18.2099 25.3053 17.2574 24.6528 16.7474L24.2103 16.4024C23.5578 15.8924 22.6053 16.0199 22.0878 16.6799L16.1328 24.2924L16.3053 26.9924L18.9528 26.5049V26.4674V26.4749Z" stroke="#191919" stroke-width="1.5" stroke-linecap="round" stroke-linejoin="round"/>
<path id="Vector_2" d="M21.2168 17.7898L24.0293 19.9873" stroke="#191919" stroke-width="1.5" stroke-linecap="round" stroke-linejoin="round"/>
<path id="Vector_3" d="M12.7725 25.845H7.3125C5.655 25.845 4.3125 24.5025 4.3125 22.845V6C4.3125 4.3425 5.655 3 7.3125 3H20.6775C22.335 3 23.6775 4.3425 23.6775 6V13.0275" stroke="#191919" stroke-width="1.5" stroke-linecap="round" stroke-linejoin="round"/>
<path id="Vector_4" d="M8.22852 7.35742H12.301" stroke="#191919" stroke-width="1.5" stroke-linecap="round" stroke-linejoin="round"/>
<path id="Vector_5" d="M8.22852 11.1973H15.376" stroke="#191919" stroke-width="1.5" stroke-linecap="round" stroke-linejoin="round"/>
</g>
</svg>
