<svg width="26" height="18" viewBox="0 0 26 18" fill="none" xmlns="http://www.w3.org/2000/svg">
<path fill-rule="evenodd" clip-rule="evenodd" d="M10.3405 5.88386L12.8024 3.65912C13.9479 2.62396 15.4904 2.14438 17.021 2.34755L20.2557 2.77695C20.27 2.77884 20.2844 2.77618 20.2971 2.76934L24.798 0.336537C25.0899 0.178693 25.4446 0.390152 25.4446 0.722129V9.02928C25.4446 9.59496 25.1718 10.1259 24.7118 10.4551L21.7106 12.6026C21.6853 12.6207 21.6509 12.6194 21.6271 12.5994L18.4644 9.94569C18.424 9.91179 18.4357 9.84663 18.4849 9.8276C19.0988 9.59007 19.6267 9.21981 20.0665 8.76361C20.4866 8.32796 20.474 7.63425 20.0383 7.21419C19.6028 6.79411 18.909 6.80674 18.489 7.24238C18.1629 7.58055 17.786 7.79778 17.3451 7.88411C16.9636 7.9588 16.4786 7.94608 15.8696 7.76138C15.8609 7.75872 15.8527 7.75429 15.8457 7.74841L15.1164 7.13649C15.0914 7.11551 15.055 7.11519 15.0297 7.13572L12.8914 8.86617C12.0343 9.55984 10.7741 9.41161 10.1013 8.53795C9.47632 7.72637 9.58046 6.57064 10.3405 5.88386ZM8.87109 4.25781L10.5464 2.74394C10.5864 2.70781 10.5705 2.64195 10.5182 2.62897C9.80345 2.45164 9.05125 2.42092 8.30764 2.54968L5.11265 3.10286C5.09762 3.10546 5.08214 3.10295 5.06871 3.09572L1.55921 1.20697C1.26086 1.04641 0.89917 1.2625 0.89917 1.60131L0.899206 9.02852C0.899209 9.62089 1.19206 10.1749 1.68152 10.5086L11.2453 17.0281C12.4834 17.8721 14.116 17.8565 15.3377 16.9888L19.6587 13.92C19.6951 13.8942 19.6972 13.8409 19.663 13.8122L15.0912 9.97615C15.0662 9.95517 15.0299 9.95485 15.0045 9.97538L14.2701 10.5697C12.456 12.0378 9.78881 11.7241 8.36492 9.87506C7.04218 8.15739 7.26258 5.71136 8.87109 4.25781Z" fill="#B0B8C1"/>
</svg>
