<svg width="30" height="30" viewBox="0 0 30 30" fill="none" xmlns="http://www.w3.org/2000/svg">
<g id="Frame 5630">
<path id="Vector" d="M9.26921 8.46021L5.36172 12.3677C5.06922 12.6602 4.91171 13.0502 4.91171 13.4552V19.3577L3.79422 20.4752C3.20922 21.0602 3.20922 22.0127 3.79422 22.5977L7.67173 26.4752C8.25673 27.0602 9.20922 27.0602 9.79422 26.4752L13.0942 23.1752H19.5142C20.3242 23.1752 20.9767 22.5227 20.9767 21.7127V20.7152C21.9067 20.2652 22.5592 19.3202 22.5592 18.2177V17.1302C24.6817 16.9127 25.2517 15.1427 25.2517 12.9602V12.8102H23.4442H15.3742" stroke="#191919" stroke-width="1.5" stroke-linecap="round" stroke-linejoin="round"/>
<path id="Vector_2" d="M23.4459 12.8177V12.6902L23.5284 12.7352L24.5334 11.7302L26.1984 10.0652C26.7834 9.48015 26.7834 8.52766 26.1984 7.94266L21.7809 3.52518C21.1959 2.94018 20.2434 2.94018 19.6584 3.52518L17.9934 5.19015L16.9059 6.27766H11.4534C10.5534 6.27766 9.81836 7.01266 9.81836 7.91266L9.83335 7.89767" stroke="#191919" stroke-width="1.5" stroke-linecap="round" stroke-linejoin="round"/>
<path id="Vector_3" d="M15.3756 12.8174V14.1224C15.3756 15.5774 14.1306 16.7549 12.5931 16.7549C11.0556 16.7549 9.81055 15.5774 9.81055 14.1224V7.91235" stroke="#191919" stroke-width="1.5" stroke-linecap="round" stroke-linejoin="round"/>
</g>
</svg>
