<svg width="26" height="26" viewBox="0 0 26 26" fill="none" xmlns="http://www.w3.org/2000/svg">
<path fill-rule="evenodd" clip-rule="evenodd" d="M19.3082 2.73926C19.8507 2.73926 20.3709 2.95476 20.7545 3.33836C21.1381 3.72195 21.3536 4.24222 21.3536 4.78471V15.012H14.7059C14.299 15.012 13.9088 15.1736 13.6211 15.4613C13.3334 15.749 13.1718 16.1392 13.1718 16.5461V23.1938H7.03544C6.49296 23.1938 5.97269 22.9783 5.58909 22.5947C5.20549 22.2111 4.98999 21.6908 4.98999 21.1483V4.78471C4.98999 4.24222 5.20549 3.72195 5.58909 3.33836C5.97269 2.95476 6.49296 2.73926 7.03544 2.73926H19.3082ZM21.3096 17.0574C21.2275 17.4449 21.0345 17.8002 20.7543 18.0802L16.24 22.5945C15.96 22.8747 15.6048 23.0676 15.2173 23.1498V17.0574H21.3096ZM11.1264 11.9438H10.1036C9.83238 11.9438 9.57225 12.0516 9.38045 12.2434C9.18865 12.4352 9.0809 12.6953 9.0809 12.9665C9.0809 13.2378 9.18865 13.4979 9.38045 13.6897C9.57225 13.8815 9.83238 13.9893 10.1036 13.9893H11.1264C11.3976 13.9893 11.6577 13.8815 11.8495 13.6897C12.0413 13.4979 12.1491 13.2378 12.1491 12.9665C12.1491 12.6953 12.0413 12.4352 11.8495 12.2434C11.6577 12.0516 11.3976 11.9438 11.1264 11.9438ZM16.24 7.85289H10.1036C9.83238 7.85289 9.57225 7.96065 9.38045 8.15244C9.18865 8.34424 9.0809 8.60438 9.0809 8.87562C9.0809 9.14687 9.18865 9.407 9.38045 9.5988C9.57225 9.7906 9.83238 9.89835 10.1036 9.89835H16.24C16.3743 9.89835 16.5073 9.87189 16.6314 9.8205C16.7555 9.7691 16.8682 9.69377 16.9632 9.5988C17.0581 9.50383 17.1335 9.39108 17.1849 9.267C17.2363 9.14292 17.2627 9.00993 17.2627 8.87562C17.2627 8.74131 17.2363 8.60832 17.1849 8.48424C17.1335 8.36016 17.0581 8.24741 16.9632 8.15244C16.8682 8.05747 16.7555 7.98214 16.6314 7.93074C16.5073 7.87935 16.3743 7.85289 16.24 7.85289Z" fill="#B0B8C1"/>
</svg>
