<svg width="40" height="41" viewBox="0 0 40 41" fill="none" xmlns="http://www.w3.org/2000/svg">
<path d="M12.3596 11.7808L7.14961 16.9908C6.75961 17.3808 6.5496 17.9008 6.5496 18.4408V26.3108L5.05961 27.8008C4.27961 28.5808 4.27961 29.8508 5.05961 30.6308L10.2296 35.8008C11.0096 36.5808 12.2796 36.5808 13.0596 35.8008L17.4596 31.4008H26.0196C27.0996 31.4008 27.9696 30.5308 27.9696 29.4508V28.1208C29.2096 27.5208 30.0796 26.2608 30.0796 24.7908V23.3408C32.9096 23.0508 33.6696 20.6908 33.6696 17.7808V17.5807H31.2596H20.4996" stroke="#191919" stroke-width="1.96" stroke-linecap="round" stroke-linejoin="round"/>
<path d="M31.2599 17.5907V17.4207L31.3698 17.4807L32.7098 16.1407L34.9298 13.9207C35.7098 13.1407 35.7098 11.8707 34.9298 11.0907L29.0399 5.20072C28.2599 4.42072 26.9898 4.42072 26.2098 5.20072L23.9898 7.42069L22.5399 8.87071H15.2698C14.0698 8.87071 13.0898 9.8507 13.0898 11.0507L13.1098 11.0307" stroke="#191919" stroke-width="1.96" stroke-linecap="round" stroke-linejoin="round"/>
<path d="M20.5001 17.5903V19.3303C20.5001 21.2703 18.8401 22.8403 16.7901 22.8403C14.7401 22.8403 13.0801 21.2703 13.0801 19.3303V11.0503" stroke="#191919" stroke-width="1.96" stroke-linecap="round" stroke-linejoin="round"/>
</svg>
