<svg width="40" height="41" viewBox="0 0 40 41" fill="none" xmlns="http://www.w3.org/2000/svg">
<g id="Frame 5640">
<path id="Vector" d="M12.751 26.8005C12.751 28.2305 11.291 29.2005 9.97104 28.6505C7.37104 27.5605 5.54102 24.9905 5.54102 21.9905C5.54102 18.9905 7.37104 16.4205 9.97104 15.3305C11.291 14.7805 12.751 15.7505 12.751 17.1805V26.8005Z" stroke="#191919" stroke-width="1.96" stroke-linecap="round" stroke-linejoin="round"/>
<path id="Vector_2" d="M27.2402 17.1805C27.2402 15.7505 28.7002 14.7805 30.0202 15.3305C32.6202 16.4205 34.4502 18.9905 34.4502 21.9905C34.4502 24.9905 32.6202 27.5605 30.0202 28.6505C28.7002 29.2005 27.2402 28.2305 27.2402 26.8005V17.1805Z" stroke="#191919" stroke-width="1.96" stroke-linecap="round" stroke-linejoin="round"/>
<path id="Vector_3" d="M9.43945 15.0507C9.43945 14.7307 9.44946 14.4207 9.47946 14.1007C9.95946 8.71074 14.4795 4.49072 19.9895 4.49072C25.4995 4.49072 30.0195 8.71074 30.4995 14.1007C30.5295 14.4107 30.5395 14.7307 30.5395 15.0507" stroke="#191919" stroke-width="1.96" stroke-miterlimit="10" stroke-linecap="round"/>
<path id="Vector_4" d="M30.04 29.2007C28.67 33.4407 24.69 35.5007 20 35.5007" stroke="#191919" stroke-width="1.96" stroke-miterlimit="10" stroke-linecap="round"/>
</g>
</svg>
